<mxfile host="app.diagrams.net" agent="Mozilla/5.0 (Windows NT 10.0; Win64; x64) AppleWebKit/537.36 (KHTML, like Gecko) Chrome/129.0.0.0 Safari/537.36" version="24.7.17">
  <diagram name="Strona-1" id="tp9UY1Nlj9pyaT_c14t2">
    <mxGraphModel dx="1434" dy="746" grid="1" gridSize="10" guides="1" tooltips="1" connect="1" arrows="1" fold="1" page="1" pageScale="1" pageWidth="827" pageHeight="1169" math="0" shadow="0">
      <root>
        <mxCell id="0" />
        <mxCell id="1" parent="0" />
        <mxCell id="3ItWE5Dm4-1pLOyVrMed-1" value="" style="shape=image;verticalLabelPosition=bottom;labelBackgroundColor=default;verticalAlign=top;aspect=fixed;imageAspect=0;image=data:image/png,iVBORw0KGgoAAAANSUhEUgAAARwAAACxCAMAAAAh3/JWAAAAh1BMVEXZp0H///+HaSnZpj7o1rfYozPZrlvcqUKqhDOEZyiEZiGijGLYpDnlxInbrE/gt278+fHdsFXq0KTXzr2AXxDXoS3aqkf269fq28HXq1L+/fjlxYretGLv3LrWoCf058/u2bP79uymfSF9XACdhVjjv3zhu3Pr0aPpzJn48OHz5Mre0brf18opTLpSAAAD90lEQVR4nO3d21ITQRRG4dmGeEwgnCGInJEA7/98WnNhlfTM6uPojv7ruitmvgoyu6ejnanRur/9BjwnHEg4kHCgXzhn5+9V3/lZgLNzPFN9xzshzrxTfXPhjCccSDiQcCDhQMKBhAMJBxIOJBxIOJBwIOFAwoGEAwkHEg40KQ7uQWYtzlvd6v1PibNYrlejrXd/v4bZHi3ee7N4lxYvF40uYFKcC4MCHFoc4NDi7cBZCmc04UDCgYQDCQcSDiQcSDiQcCDhQMKBhAMJBxIOJBxIOJBwIOFAwoGEAwkHEg4kHEg4kHAg4UDCgYQDCQf6L3FSDwe5wSnFKsCZPSTyuMF5KPxZKMCZH2y+Jb22F5y5FeoU4dhpko4bnHWhThmOXR0nvLYjHHss0SnEseeEP8wTju0V6JTi2GX8s+MKx77m/84qxrHL6N87vnBsP1unHMeuYzrOcNbZOhU4dh35yXKGY+vdTJ0aHPvOOt5wbJWpU4VjT6jjDsduTrK+F1GHY0+01h+O3SxydCpx7AIWO8SxzTxDpxaHbsw94mTpVOOAjkscO03XqccZH1t84mToNMCxx5FfkE5x0qbmVjhjY4tXHHtO249qgzMytrjFsee0z04bHBu89fSLk7Kn0A5ncGxxjBOdC1viDI4tnnHsIEGnFc7Q2OIaJzY1N8Wxm+DL7r5xIlNzW5xQxzkOT82NcX7eem4XzttXnRJn/X7LPjmXsa2vhjjBfbJznPidYDuccIbwjXMVnyGa4Qw8NHONk2DTDGdo38IzTtK+RSOcwR0vxzibpL3kNjjDO8l+cTZp/zpTE5yRe023OOHN/HQ4Y1OKV5xV6sG9BjijE5xTnFXyk716nPHZ3ydOxjPhahzYNXKJk3PWohaHTum4xMk5w1SJg/OJR5ys8111ODy7OcTJOxlYhRN5OuYPJ/NMaQ1ObD5xh5N7GrkCJ3pewRvOMve0bTlOfHZzhkNHiUautBQnYT7xhRN/2BBeaSFOyuzmCqfAphQnaXbzhJPygDO80iKcddLs5ggn6dF4eKVFOGnziRucxEMV4ZXm4yyeEu/BveDMyj43RThd6lleLzhd6Td69e1gSDiQcCDhQMKBhAMJBxIOJBxIOJBwIOFAwoGEAwkHEg4kHEg4kHAg4UDCgYQDCQcSDiQcSDiQcCDhQMKBhAPpf7qH/kWci23A6U72oWB1s8Unrd7/pDjdDPqDi0ubFmfLEw4kHEg4kHAg4UDCgYQDCQcSDiQcSDiQcCDhQIM4H1TfAM7L7UfVd/sS4BwefVJ9R4cDOO9Un3Ag4UDCgYQDCQcSDiQcaAjn7rPquwtxXu+/qL771wBHhQkHEg4kHEg40A9Rcvi/GXcL0wAAAABJRU5ErkJggg==;clipPath=inset(3.11% 2.82% 2.54% 2.82%);" vertex="1" parent="1">
          <mxGeometry x="530" y="230.76" width="93.86" height="58.49" as="geometry" />
        </mxCell>
        <mxCell id="3ItWE5Dm4-1pLOyVrMed-2" value="" style="shape=image;verticalLabelPosition=bottom;labelBackgroundColor=default;verticalAlign=top;aspect=fixed;imageAspect=0;image=data:image/png,iVBORw0KGgoAAAANSUhEUgAACgAAAAGSCAYAAAAv/ZhqAAAABGdBTUEAALGPC/xhBQAAACBjSFJNAAB6JgAAgIQAAPoAAACA6AAAdTAAAOpgAAA6mAAAF3CculE8AAAABmJLR0QA/wD/AP+gvaeTAAAAB3RJTUUH6AcNCC4YYPH3QAAAgABJREFUeNrs3XmYXFWZ+PHvudXdWSAbOwiyqQi4oCKLohBI0p2EgAuJziiKkK4EGHQYt3H72Y7LuM24A+kExV07gGBIUh3AdgWEqIggsgiyBWQPYUknXXV+f6RhQFnSSXfVPbe+n+fJI+Ooee/7nnvq3u63zguSJEmSJEmSJEmSJEmSJCk5wRRIkiRJkiRJkiRJkiRJKpoLLrhg0qhRo8ZVq9VxMcbxpVJpXLVanRBCmBBCyABijJOe9F8pAeOBh4Dq4P+/lmXZ6sF/Xj/4/1sdQngghPBQjHF1W1vbQ5MnT15rxtUINgBKkiRJkiRJkiRJkiRJSkZPT8+YCRMm7Blj3DPGuGsIYXtgpxDCdjHGnYDtge3Y0NBXL2uAO0IIf6/VareHEP4eQrg9xnhHrVa7YcyYMTdMnjz5Yaun4WYDoCRJkiRJkiRJkiRJkqTcWbZs2c4hhJdlWfayGONewJ6Df3ZK9JLuDCFcH2O8IcZ4fQjhD+vXr79y1qxZ91ptbSobACVJkiRJkiRJkiRJkiQ1VKVSeUEI4bXAK2OMLwVeDmzVJJd/G/CHGOMfsiz73fr163995JFHPuCq0MbY7AbAOJ/tGGAHSmxBjS1ye6UZD1LlEfq5NXyXRyx9/cQyEwjsNrg+xuZ4jayjyiO0cUc4jbusnCRJkiRJkiRJkiRJ0vBbuXJl6z333LM/cHCWZYfEGF/DhrG92qAG/CmE8ItarfaLGOOvZsyYcY9p0dMZcgNgPIFdKfEWAocTOQCYlNg1R+AW4NdEKqzlPBsChznBZSYQeTMZ7UQOIc1jVx8CLiPwMwb4UTiTW6yslMT+Mxb4kplo2Cfsw8D6J/7vjBqwmhpryXgMWAOsp8aDg//+A4zmAbblgdBFzQRKknL/UTeX7cn4r9wFtgX/Hr7EY1ZIaui7yI5AV+4CW8d7wlmstUJSzvaMTo4ncGDSFxG4LCzgW1ZTkiRJ0lAsXbp01yzLOkIIHcARwDizsvGvk8CVwAXABZdddtnKrq4uf8eqwdf0jV1F8zmMGh8CpgBZgXLwMIEzqfLFsIjbXRKbsdOcyB7U+E8ibwfGFOjSasAKAv8dFvBLKy3leB86jom04THIaVoN3EPk7wTuIrKKwD1E7iBwOyVu4TFu8ZeXkqQGv/PsRZW/5DC0iaGb1VZIauD+MJe9yfhz7gIbYHz4JmuskJSzPaPMd4G3J34Z3w3dvMNqShqKnp6etvHjx/9XM+cghLC4vb39d64GafhVKpWZwOua9fprtdrHZ8yY0e9KUO7ef2IMK1asODjG+GZgOrC3WRk2d4UQlsYYl9RqtYp7QHNrec6bccOJf1+lxlEFzcGWRN5DRjnO4zPcz+fDYta5NIawYZ/KGB7lY1R5L9BWwEvMgA4iHbHMudR4j82ikjTsJgATCLwA+L+vKDz+r9UNnzCxzN+J3ELG36hxPXA9Ja4jcEM43eZPSZIkSZIkKa+23Xbbtv7+/g82cw5ijDuBDdTSCPk08PJmvfj169d/GrD5R7lRqVT2jTHO7u3tfTuwpxkZETvEGE8ATsiy7MFKpbIE+E57e/vFIYRoeprLszYAxnm8iciZwMQmyMUYIp9kEkfFubwlLOJml8dGvKicyF48Qg/wsia55DeRcVjs5F1hIT91BUhS3W1PYHsiBzzRHDh4sHUscw9wNZGrgT8RuIoWrgmn8bBpkyRJkiRJkpQDRy1btmyUJ/RIw2vFihUvrNVqLzcTUmMtXbp011KpdDzwNmDPEIJJqZ+JwLHAsb29vTf39vZ+v1QqfWvKlCk3mZrm8IwNgLGT9xH5PEMYE1wQrybjsjiXGWERHsH9LGInr6HKBcCkJrv0rQj8JHbyH2EhX3ElSFJubAtMJjD5iX9ngBjL3ASsBK4gspIqv3cMmiRJkiRJkqQGmFAqlaYBS0yFNHyq1epbbDSSGqOnp6c0fvz4ySGEcozxjWzEJFKNuN1jjB8dGBj4cKVS+VmMsXv06NE/mTx58oCpKa6nvfFimQ8An2vivGxHxsVxHoeGBfzRZfK0a+RAoBfYsklTkBH4ciwTQjdfdkVIUm4FNhwrvifwFgLQQi2WuQ64FPglNX7pyb+SJEmSJEmS6iHGOBsbAKVhFUI4xixI9bVkyZLntbS0/FsI4V3A9jE6cTaHMmBKCGFKf3//LZVKpbulpWXBlClT7jM1xSz2Ux86O3kr8FlTwwQiy2OZHU3FP6yRE9gVuIDmbf57sv+NnbzRNEhScs8/ewPHA2eRcVMsc1ss8/3YSWc8iV1MkSRJkiRJkqQRcnRfX99o0yANj6VLl74IcPyvVCcrVqzYb/ny5QtaW1tvDCH8J7C9WUnCrsCnBwYGbunt7f1Kb2+vvw8tmKc0AMYTeAGBbppv7O8z2RH4fuz650bJZhW7aKHED4FtzAYAgcA343x2MxWSlLSdgX8l0M0At8Yyf4ydfDZ2cmjs8qhySZIkSZIkScNm/Lp166aaBml4tLS0zDYL0siKMYbe3t4jK5VKX61W+0MIoQzYzJ6mLWKM744x3lipVL7Z29v7YlNSDE9tbCtxOjDOtDzFZFZxvGkYtIqTgINNxFNMpMbXTYMkFcrLCHyQwM9ZxT2xzFlxHjPibNpMjSRJkiRJkqTNMTgGWNLw3E9zzII0ciqVypTe3t7fxhiXAIeZkcJoA94VY7ymt7e3Z9myZXuakrQ90QAY5zELmGJKntZn4rFs0fQPT2UmAJ9wOTytmXEefltLkoppIvBOIkuZxF2xzDdjJ+1xNiVTI0mSJEmSJGkTOAZYGgbLly/fC3iZmZCGX6VSmVKpVC4HLgRebUYKK4sxzs6y7Nrly5cvqFQqO5qSRAv5xD9FPmI6ntG2jGVe02chchIbmiD09Pn5qEmQpMKbBLyLQIVJ/C128sl4InuYFkmSJEmSJElD4BhgaXh4mqY0zCqVyuts/GtKrYOjna/v7e39eE9PzxhTkpYMIHayH3Cg6XgWkXJzXz6B0Nw52Aivj2Wcjy5JzWNnAh+lyo1xHhfHTt4ay7SaFkmSJEmSJEnPxTHA0ubLsszxv9IwufDCC59fqVS+A/wCG/+a2ZYxxq7x48dfX6lU3mE6EvpMBCDwr6biOe0Vy7yyaa++k4OB3VwGz+mtpkCSmk4gcjiBHwI3xzL/GU9gK9MiSZIkSZIk6VkctWzZslGmQdo0y5cv3yvG+FIzIW2evr6+icuXL//farV6A3AsEMyKgJ2Bby9fvrx3cNy6cu7xEcBHmIqNMsVr17OK5kmSmtzzgP+mxG2xk9PjPF5oSiRJkiRJkiQ9jQmlUmmaaZA2TQjB0/+kzVSpVP61v7//2hDCqUCbGdHT7LXTQghXVSqV/7dy5UonoeVYFk9lDLCfqdgoBzfvXc1Bln+j8vTq2EWLiZCkpjeWwHwi18Yy34mdvMiUSJIkSZIkSXoyxwBLm8UGQGkTLVu2bM9KpVIBvg/sYEb0HNqAT9x3332/W758ueOhcypjDS/k/04C1LN7cRNfu0d6buzGdye7mwZJ0qAScCyBP8cy340n+nkqSZIkSZIk6QmOAZY2QW9v74uBl5gJaWj6+vpali9f/tEsy64G2s2IhiLG+NIQwiWVSuXTPr/kT0ZgR9Ow0Xb02mWuJEmboAS8nSrXxHl0x5P8NpUkSZIkSZIkxwBLm+gtpkAamosuumiP/v7+vhDCJ4HRZkSbqAX4cJZlv1u6dOlLTUd+ZMCWpmGjjYsQmu2i42xKwBjLv7EJY5xJkCQ9gxKRTga4IZb5SDzVz1dJkiRJkiSpmTkGWPK+kUb4fgm9vb3lgYGBq4BDzIiGyb4tLS2/rVQq7zEV+ZABraZhCPma3YTjknegxdIPifeUJOm5bAl8ike4LnbyVtMhSZIkSZIkNS3HAEtDcOGFF+4N7GsmpOe2dOnSHXp7e3tjjAuALcyIhlOMcQzw5eXLl//wwgsvnGBGGiszBZIkSQ2zC4Efxk764onsZTokSZIkSZKkpuMYYGkIqtWqp/9JG2H58uWHlUqlPwBTzYZGUgjhrdVq9YpKpWJzdgPZAChJktTwJ2MOo8ofYpmuOJs2EyJJkiRJkiQ1D8eZSkMyxxRIz/qZEiqVyntCCCuAHcyI6uSFwGWVSuXNpqIxbACUJEnKhzHAx5nEb2On4wskSZIkSZKkJuIYYGkjLFu2bB8c/ys9o76+vom9vb0/Bb4MtJoR1dmWwOJKpfKJrq4u+9HqzIRLkiTly34EVsZO3hMhmA5JkiRJkiSp8CaEENpNg/TsSqWSp2VKz+Ciiy7ao7+//xLgSLOhBgrA/zvooIPOWbJkyVjTUT82AEqSJOXPaAJfpkwlltnRdEiSJEmSJEnFlmWZjU3Sc4gxOv5XehrLly8/eGBg4FJgb7OhnHhDa2trX29v73amok7PkqZAkiQpt6YBv4/zea2pkCRJkiRJkoorxnh0X1/faDMhPb1KpbIvsI+ZkP7p3piTZdnFgI1WypsDarXapUuXLn2RqRh5NgBKkiTl2w7U+Hks825TIUmSJEmSJBXWuLVr104zDdLTizF6Sqb0DyqVygeAH8UYx5gN5VEIYY9SqfTLFStW7G82RpYNgJIkSfnXAnwlllkQZ9NmOiRJkiRJkqTicQyw9MxCCN4f0qAYY1i+fHkX8DkgmBHl3Pa1Wu3ny5cvP8xUjOBzpCmQJElKRplJrIjHMdFUSJIkSZIkScXiGGDp6fX29r4Ex/9KAPT09JQqlcoZIYSPmw0lZIsQwgWVSmWyqRgZNgBKkiSl5VDa+HWcy86mQpIkSZIkSSoUxwBLT6NWqx1jFiRYuXJl6/jx438QQiibDSVoC2CJJwGODBsAJUmS0rMvGb+KnbzIVEiSJEmSJEnF4Rhg6Z+FEOaYBTW7vr6+lnvuuecHgPeDUrZFCGGpTYAj8AxpCiRJkpK0G4Ffxfm8wlRIkiRJkiRJxeAYYOmpli5d+lJgbzOhZtbT01Nau3btWSEET8NUEYwNIfx0xYoV+5uK4dNiCiRJkpK1HTV+FsscEbr5vemQJEmSJEmSkvf4GOCfmgoJSqWSDU9qaj09PaVx48Z9O4TwNrOxSWohhDtrtdrfQgi3hhBur9Vq9wD3D/55IMuyNQMDA2tGjRo1ANDf3/9ojLF/9OjRbWwYW8vAwMCYEMJoYKtarbZNCGHrEMLWMcbtgT0G/+wKtJnyjXveqdVqyy+88MLXT5069VrTsflsAJQkSUrbRKASO5kcFnKN6ZAkSZIkSZLSNjgG2AZAaQPHYqtpxRhDb2/vQsDmv41IF/BX4KoY459CCH/KsuyqBx988JY5c+asq0cAXV1d2atf/epdWlpaXhpjfEUI4RUxxlcAu1mep7VNtVpdsXTp0kNmzpx5i+nYPDYASpIkpW9bAhfGeRwaFnCD6ZAkSZIkSXkR57IzgW3CQq40G9JG3jcxHrVs2bJRM2bM6DcbamaO/1Wzq1QqnwkhvMtMPK31wMoY42+AXw0MDFwya9asexsZUFdXVw24ZfDPBU/ay3YolUqHA5MH/+xp+Z6wc6lU6q1UKq/p6Oi433RsOhsAJUmSimFHIhfH+RwczuAO0yFJkiRJkhopdpFxJycT+TSB94ANgNIQjA8htOMpgGpypVLJ0//UtJYvX/7uEMJ/momnuD/GuDyE8NNarVaZMWPGQykEPXPmzLuAHwz+oVKpvAB4c4zxmBDC/paVvYBzenp62ut1WmMR2QAoSZJUHLtQY0k8ideH03jYdEiSJEmSpEaIZV7KnXQTOchsSJvGMcAS4PhfNane3t63xBi/ZCYAeAQ4J8b4ndGjR/9i8uTJA6lfUEdHx43A54DPLV++fDfgX0IIncDuTVznw8aPH38GcLxLftPYAChJUmPcSYl9cxFJpJXAlk/7/6sxmipjBv+vCQQyeNJ/PrAlkTYCE4mMITKawERgNDB28L8zhsgEYOLgn/GWf0S9gio/jLN5Q1hM1XRIkiRJkqR6iacyhkf5GJH3EWk1I9Jm3E+OAVaTGxz/+2IzoWZTqVReF2P8DpA1+efgb0IIZ/b395999NFHrynqdU6fPv1vwH93dXV97uCDD26PMc4HZgKlJiz7u5YvX37D9OnT/9udYOhsAJQkqTFq4XQeyFE8d9ftgR0CJzIRmESVicAEIhMJ7ABsB2wL7AA8nw3fdNnG5TLkJB/JRL4EvNtkSJIkSZKkeojzOIJHOAN4gdmQhoVjgNXUWlpa5sQYTYSaytKlS3cFzgHamjQFNeAntVrtizNmzLismS68q6urBiwHli9fvnyvEMJHgH+hyfq6Qgif6u3tvbq9vX2JO8IQPzdNgSRJquuDG0Q2ND9uVANkPJ5xZOxOxl4EXkJkX+AlbPhhcsmMPmOiT4llrgrdLDIZkiRJkiRppMST2Zr1/A+RdwDBjEjDxzHAaurPlxgd/6um0tfXt2V/f/9P2XBQRrMZCCF8O4TwuWnTpt3Q7Gth+vTp1wHvqFQq/wV8BDiW5vmdaBZj/E6lUnn14KhkbWziTIEkScqz8E3WhEVcFbpZHBbw8dDNMaGbFzPAJOBwIh8mcj5wn9n6J1+LnexnGiRJkiRJ0kiI83g767kWeCc2/0nDf4/FeHRfX99oM6FmU6lUXg7sZSbURPt96O/vPxN4WZNdei2EsLhare7b3t4+1+a/p+ro6Lixo6PjXaVS6aVApYkufWII4dwlS5aMdRVsPE8AlCRJSQrfZA3QN/iH2EXGKvYjcjgZU4gcCjT7D8dGE1gcy+wfulntqpEkSZIkScMhnsge1DiNSLvZkEbUuLVr107DUwDVZEIIxzj+V82kt7f3Y8CcJrvsi0IIp7a3t1/tCnh2U6dOvRaYXqlU3gz8D7Br4d83Ynxpa2vrGcA7XAEbxxMAJUlSMX4g0EUtdPP7sJAvhgV00MK2BGYT+D7wYBOn5gVExwBLkiRJkqTNF7toiWXeT5U/2fwn1cfgGGCpuT5vYpxjFtQsli9ffgTw/5rokm8Bjuno6Jhq89/QdHR0nDNq1KiXhBC+CtSa4JKPrVQqc638Rj4zmgJJklRE4TQeDgs4Oyzg7YxiBwJvBs4D1jVfMjgmzqPsqpAkSZIkSZsqzmN/VnE58HnAcVxSve69GI9yDLCayeD43xeZCTWDFStW7BRC+D5QaoLLHYgxfnb9+vX7dHR0nGP1N83kyZMfbm9vf0+M8RDgz01wyV9eunSpnwkbwQZASZJUeOFr9IcFnBu6eSOt7AT8B3BjUyUh8sV4QvGPBJckSZIkScMrnsSWscz/ErkMeIUZkepu/OAYYKlZePqfmkJPT0+pVqt9B9i+CS73mhjja6ZPn/6hWbNmPWr1N9/06dMvHTVq1KsGTwMs8sz0LUql0g97enrarPqzswFQkiQ1lfAN7gvdfImd2IvIDKDSJJc+jhKLIgRXgSRJkiRJ2hhxHjMY4GrgVJrjZBoplxwDrCZzjClQM5gwYUIXcETBL7MKfOahhx565fTp06+w6sNr8uTJa9vb298DvBG4r8CX+spx48Z9woo/x/OiKZAkSc0odFELC1keuplOYD9gMcX+hgzAFMqOApYkSZIkSc8uzmX7WOY7RJaCEwWkht+TjgFWk1ixYsV+OP5XTWDZsmUHxRg/VPDLvDOEMK2jo+Mjc+bMWWfVR05HR8f5tVptP6CwTZYhhA9UKpXXWe1nZgOgJElqemEBfwzdzKHGq4FfFvxyvxCPZyerLkmSJEmS/lGEEOdxAhnXAseaESk3HAOs5vgcitHxvyq8JUuWjM2y7NsU+3TlPuBV7e3tP7Pi9TFjxozba7Xa64BvFvQSM2BRT0/PGKv9zAmSJEkSEBbxu9DNoQSOAm4t6GWOo4XPWW1JkiRJkvRkscyelFlBZBEwyYyoqdZ/jK8Dpuc5RscAq0nuxWNyHNt7gbdYJW2utra2L1Dsky4/d9lll03p6Oi402rX14wZM/o7OjpOAP6dDeOXi+ZF48eP/7iVfoZnRVMgSZL0VGEBS2hhX+B0ijkW+G1xPq+10pIkSZIkKc6mLZb5GHA1MMWMqFlts802FwP35/ZedQywCm5w/O8L83oLtrS0nG2VNAzrfFqM8cSCXt7aGOOxHR0d/9nV1VWz2o3T0dHxlRDCMSGExwp4ee+tVCqvtMr/rMUUSJIk/bNwGg8DJ8VOlhA4E9ixSJdH5CuxiwNCF76ESZIkSVJ9XQNclPhb5TWWsRhiJ68h0A3sazbU7Pbff//1vb29P4kxnpDTEMf39/e3A+dbLRXyMynH439DCL+dOnXqrZVK5SArpU21ZMmSsbVa7QwgFPDy7g4hHNXR0fFbK50P7e3t5y1fvnxaCOF8YKsCXVoLcGZfX9+rJ0+ePGCln5oYSZIkPdOL/UKWx5N5Kev5HtBRmAuLvIpVHA8sssqSJEmSVMf3zG4+C3zWTKiRYpkJwH8D83BalPSEWq22OIRwQm7v3RhnYwOgivrZtGF951WPFdLmamtr64ox7l7AS/tblmXTpk2bdoNVzpfp06f/ulKpvB64GNi+QJe2X39//8nAV6zy//GlTpIk6TmEb3Af3cwAPkGxRgJ/Ip7KGCssSZIkSVLziPOYBfwJOBF/TyQ9xejRoy8G7slrfCEExwCrkAbHOb4grx+dWZadY5W0OZYuXfrSGOO/F/DSrg0hvN7mv/zq6Oi4JsZ4KLCqYJf2X5VKZUcr/H98sZMkSdoIAWLopgt4O9BfkMvaiUc4wepKkiRJklR8cS47x07OI/JTYBczIv2zyZMnD4QQfprjEMcNjgGWCiWEcEyOw7ts6tSpt1olbaqurq6sVCotBFoLdml/aGlpeV17e/ttVjnfpk+ffl2pVJoC3FWgyxoPfMrq/h8bACVJkoYgdPMDYDqwpiCX9GFPAZQkSZIkqbgihDiPMhnXEDjajEjPrlarLc71PZ3vMalSEde143+1WQ466KATgAOLdE0hhD+tX79+2pQpU+6zwmmYOnXqtSGEqcADBbqs43p7ew+0uhvYAChJkjTUF5tu+ogcARThxWZHHqZsVSVJkiRJKp44n5dQ5jdEFrDhlAxJz2Hbbbf9GTn+uV8IYZZjgFUkeR//W6vVzrZK2lTnn3/+OOCTBbusPwNTZs2ada8VTkt7e/vVMcajQgiPFeSSshjjV2KMweraAChJkrRJwkKuoEY78FD6F8MH42zarKokSZIkScUQj2N0LPMpavweONiMSBtv//33Xw/8JMchjncMsAr1mZXj0/9ijJfMmDHjdqukTdXW1vZhYPsCXdLfgCnt7e13W900TZ8+/dcxxn8BqgW5pAN7e3vfZGVtAJQkSdpkYRG/A94ArE38UnZkEsdYUUmSJEmS0hfLTKaNq4CPAK1mRBq6LMscAyzVSQghzz+bdvyvNllvb+/uIYR/L9AlPVStVo/q6Oi40+qmraOj43zgvQW6pM/09fW1NP3zq0tbkiRp04Vu+oD0vykTOclqSpIkSZJUCF8DXmgapE3X2trqGGCpDnp7e19Ffsf/1mKM51olbaoY438DRdmr+2OMR8+cOfNPVrYYOjo6vgKcVZDLeVF/f/+7mr2mNgBKkiRtptDNecCH0r4IXhvLvNJqSpIkSZIkqdlNnjx5AMcASyMu5+N/L3X8rzbV0qVLXwoU5rTWEMK86dOn/9zKFkutVpsfQrisIGv040uWLBnbzPW0AVCSJGk4dPNF4MeJX8U8CylJkiRJkiQ5BlhyHTv+V5uuVCp9nOL043y9vb3921a1eGbMmNG/bt26Y8jxqcdD+Dx5Xmtra7mpn11d0pIkSZsvQKSFucA1CV/G2+JJbGk1JUmSJEmS1OwGxwDfk9f4QghH9fT0jLFSStWKFSv2DyHskdPwagMDA+dYJW2K3t7elwBvLMjlXPrQQw+916oW16xZs+6IMb4DiKlfSwjhfcuWLRvVrLW0AVCSJGm4HixP42EibwHWJnoJW1BlppWUJEmSJElSsxscA3xejkMcN378+GlWSqmq1Wp5Pv3vN7NmzbrDKmlTxBg/QTF6ce4C3jxnzpx1VrXYpk+fvgz4RgHuvedlWfaOZq2jDYCSJEnDKCzkGuBT6T4d4+gQSZIkSZIkCQghOAZYGpm1G2KMx3jvq2gqlcrLKcbpf7Usy97Z0dFxp1VtDqNGjXo/cHUBLuWDPT09pWasoQ2AkiRJw20nPgf8NtHoZzgGWJIkSZIkSYK2trY+4O68xucYYKWqUqnkevxvCMHxv9rUffnjQCjAdfzPtGnTVljR5jF58uS1WZYdC6xP/FL2HD9+/FuasYY2AEqSJA33i1EXA2ScCNQSDH+MY4AlSZIkSZKkJ8YAn5/jEB0DrCSFEI7JcXi/njZt2iqrpKFasWLFfjHGN6R+HTHGlatXr/6oFW0+06ZNuzKE8LkCXMqHYoyh2epnA6AkSdIICGfwBwLfSTL4GsdYQUmSJEmSJMkxwNIIrNkA5HndOv5Xm6RWqxXh9L+1LS0t75gzZ846K9qcVq9e/UngqsQv4yW9vb1HNVvtbACUJEkaKVX+E3goubgDU+JsShZQkiRJkiRJzW716tU/wzHA0rDp7e19NbB7TsOrZVl2rlXSUK1YsWI/4OjUryPG+P+mTp16rRVtXnPmzFkXY5xLmlPOnuzDzVY7GwAlSZJGSFjE34GvJxj6RCbySisoSZIkSZKkZjdnzpxqjPG8HIfoGGAlJc/jf0MIv3L8rzZFtVr9CImf/hdCuGzNmjX/azU1ffr0K4DuxC/jgEqlMqWZ6mYDoCRJ0sg+bX0FWJtg3IdbPEmSJEmSJMkxwNIwrtWQ5/UaY3T8r4Zs2bJle4YQ3pj4ZazLsuz4OXPmVK2oAAYGBj4M/D3xz5wPNVPNbACUJEkaQeEM7gZ+mN5TsQ2AkiRJkiRJEsCoUaN+DtyT1/hCCLP6+vpGWynl3eD4391yGl61Wq2eY5U0VFmW/TtQSvkaYoz/6+hfPdmRRx75APCBlK8hhHB4pVJ5edPsRS5bSZKkEX/i+l8gJhb1IfEURlk8SZIkSZIkNbvJkycPxBh/kuMQx/f397dbKSVgTo5j++XMmTPvskQaikqlshVwXOKXcVuWZZ+ymvpH7e3t3wWuSPkaQginNEu9bACUJEka6YfLM7gauDSxsMeyjldaPUmSJEmSJMkxwNIwrNEAvDnH8Z1tlbQJ5gNbJv759u729vZHLKWeZm1E4L2JX8a/LlmyZJtmqJcNgJIkSfWR3hjgGq+wbJIkSZIkSZJjgKXNlffxv7Va7VyrpKFYuXJlK3By4pdxcXt7+3lWU8+ko6PjV0Cy+2OMcUxbW9vcZqiVDYCSJEn1sJ4fAwNJxRxsAJQkSZIkSZIgjTHA69at67BSyjHH/6pQ7rnnnjcAOyV8CbUsy95nJfVcqtXqh4BqqvHHGE/q6ekpFb1ONgBKkiTVQfgW9xC4OLGwHQEsSZIkSZIk/Z+ePAfnGGDleG0G4BjvbRVJlmWpn/737WnTpl1pJfVcZs6ceX2M8XsJX8IuEyZMmF74PcmlKkmSVDfnJRbvvrFMq2WTJEmSJEmSYPTo0b8gx2OAAccAK5dWrFhxALBrTsOrtrS0/MQqaSgqlcq+McZDU40/hPDY+vXrP2YltbFaW1v/C1ifavy1Wq1c9BrZAChJklQ/qZ0AOIrAPpZNkiRJkiRJ2jAGOIRwbo5DHOcYYOVRnk+njDH+YsqUKX+3ShqKEMJJid+TC2bNmnWHldTGmjJlyk3AtxO+Z6cvWbLkeUWukQ2AkiRJ9Xq4XMANwN+SCrrG3lZOkiRJkiRJ2qBWqy3Oc3yOAVYO12QAcrsuQwiLrZKGore3d4sY49sTvoRHq9Xq56ykNuEZ6LNANdHwW1pbW48vcn1sAJQkSaqnmNwpgLtbNEmSJEmSJGmDNWvW/By4O8chOgZYubJ8+fIDgefnNLxqzk/1VD4dA4xPOP4zZs6ceZdl1FDNmDHjr8DZCV/CCV1dXYXtk7MBUJIkqb76koo2sIclkyRJkiRJkjaYM2dONYTwkxyH6Bhg5UqWZXk+lfLn7e3td1slDUWM8YSEw19brVa/YBW1GT6fcOy7HnzwwYcU9vPWtSlJklRHgd8lFrEnAEqSJEmSJElP1ZPn4BwDrBytxcCG09LyGp/jfzUkS5cufRGQcgPRdz39T5ujo6Pj98BFCX8u/UtRa2MDoCRJUj3txPXAwwlF7AmAkiRJkiRJ0pOsXr36F8DfcxzirJ6enjFWSo22YsWKg8nx+N8sy35ilTQUpVLpeCAkGn4slUpfsora7IUU49cSDn9OT09PWxHrYgOgJElSHYUuasBVCYW8SyzTauUkSZIkSZKkDebMmVMFcj0GeMKECe1WSo1Wq9WOyXF4fY7/1VB0dXVlwLEJX8KSqVOnXmsltbnWrFmzFLgl0fC3Gj9+/NQi1sUGQEmSpPr7Q0KxtpCxnSWTJEmSJEmS/k8IIdejQx0DrByswRBCOMZ7WEVx4IEHTgZ2Svhz6ytWUcNhzpw51RDCGQl/PhVyDLANgJIkSXV/y+LqtJ6E2caiSZIkSZIkSf9ncAxwnk8Pm9XX1zfaSqlRBsf/7pLT8AbWrVt3rlXSUGRZlnLT0PXTpk3rs4oaLtVq9UxgXYqxhxCOXrJkydjC7VEuS0mSpDqrcXNaT/FsbdEkSZIkSZKk/zM4BvicHIc4bt26dR1WSo0SY5yT49h+NmvWrHutkjbWsmXLRsUY35zwJXSHEKKV1HCZMWPGPcCyRMPfsqWl5aii1cQGQEmSpPpLqwEwswFQkiRJkiRJ+kchhLPzHJ9jgNXAtReAN3vvqkD7/QxgYqLhr21paTnLKmoEnJXwPV24McA2AEqSJNXbaG4Bauk8BdsAKEmSJEmSJP2jwTHAf89xiI4BVkMMjv/dOafhDaxfv/4nVklDkfL43xDCkilTptxnFTXcttlmm2XAPYmG33HBBRdMKtQ+5ZKUJEmq88vW1+gHVqX0DG/VJEmSJEmSpKcaHAN8bo5DdAywGsLxvyqSnp6eMTHGGanGX6vVvmcVNRL233//9THGHyUafltLS8ubi1QPGwAlSZIa49ZkIo3JHmsvSZIkSZIkjbTFeQ7OMcBqwJoLwJtyHGKPVdJQjBs3rgPYItHw71+zZk3FKmqkhBAWJxz7G4tUCxsAJUmSGiOd49YjbZZLkiRJkiRJ+meXXXbZL4A7cxzirJ6enjFWSvVSqVReC+yS0/DWt7a2nmeVNBRZlr0p1dhDCD+aM2fOOquoEXwO+g1pTT17sslLliwZW5i9yuUoSZLUiLeuhBoAA6MsmCRJkiRJkvTPurq6asB5OQ5x3IQJE9qtlOoly7I8nzp58ZQpU+6zStpYK1eubI0xzkz4Er5vFVWH56CfpBh7jHFMa2vr5MJ8/rocJUmSGqDG/cnEGjwBUJIkSZIkSXoWjgGWgK6urgx4c17jS3lUpRrjnnvuORyYlGj4f502bdqlVlEjrVarpTwGeEZR6mADoCRJUkOeKBNqAHQEsCRJkiRJkvSMEhgDfJRjgFUPBx100GtjjM/LaXjrY4znWSUNRQjhyITD/34IIVpFjbTLL7/8Vzl/DnpGMcYji1IHGwAlSZIa4/6EYnUEsCRJkiRJkvQMurq6aiGEPI+/29IxwKqHnJ82eVFHR8f9VklDND3h+/EHlk/1eg4Czks0/OcvW7ZsnyLUwQZASZKkhrx58VgysQYbACVJkiRJkqRnk/fxd44B1kjr6urKsix7U45DdPyvhqS3t/fFwJ6Jhv/76dOnX2cVVS8hhLMTjn1mEWpgA6AkSVJDniZZl0ysEY+IlyRJkiRJkp7FmjVrfgXcleMQZ/X19Y22UhopeR//C5xvlTQUtVptRsLhu95VV6tXr/4FcHeKsYcQZhShBjYASpIkNeRpMqEGwMCABZMkSZIkSZKe2Zw5c6ohhHNzHOK4devWdVgpjeRtkNfAQggXOv5Xm7Bukm0KqlarP7GCqvdzENCbaPiH9PX1TUy9BjYASpIkNUItqRMAbQCUJEmSJEmSnoNjgNWsurq6MuBN3psqiiVLlowFDkk0/Jtnzpz5J6uoBjxnLEs09Ja1a9dOTT3/NgBKkiQ15inMBkBJkiRJkiSpQFIYA9zT0zPGSmm4HXTQQa8FdsppeOuq1arjUDUkra2trwFGJRr+T62gGnTfXAhUU4w9hDA99fzbAChJktQIkVo6T702AEqSJEmSJEnPZXD83Tk5DnHcuHHjHAOsEVn+OY7twiOPPPIBS6QhOizVwGOM51k+NcKUKVPuAy5P9L45NPX82wAoSZLUCCGpb449ZsEkSZIkSZKk55b3UaMhBMcAa1jlffxvCMHxv9oUkxON+/7Ro0f/2vKpgZanGHQIYY/e3t5dUk68DYCSJEmNkVID4COWS5IkSZIkSXpul19++a+AVTkO0THAGlYHHHDA68jx+N/169c7DlVDsmTJkrHA/omGf8HkyZOd6qSGybJseaqx12q1Q5LOvctPkiSpEU+RSTUAPmzBJEmSJEmSpOfW1dVVA36S4xC3dAywhlOWZcfkODzH/2rIRo0adQjQlmLsIYQlVlCNdMkll/weuDvR++d1SX8eu/wkSZIa8hSWzstj8ARASZIkSZIkaWM5BljNYnD875tzHGKPVdJQVavVVMf/VtevX3+xFVSDPxdqQG+i4dsAKEmSpCGKCTUARk8AlCRJkiRJkjbW4BjgO3Mc4pGOAdZwGBz/u2NOw+sfNWqU4381ZCGEQxMN/feeeKmcuDDRuPe96KKLtk416TYASpIkNcaWCcXqC6MkSZIkSZK0kQZPvzknxyGOcwywhkOpVJqT4/B6J0+e/KBV0lD09fVtCeyfYuwxRk//Uy5Uq9VfJhp6WL9+/WtTzbsNgJIkSY2xTTqPu9xjuSRJkiRJkqSNF0JwDLAKraurK4sxvjGv8cUYF1slDdW6deteB7Qm+rljA6ByYebMmbcAtyYafrJjgG0AlCRJaoTItsnEWrMBUJIkSZIkSRqKSy+99NfAqhyHOMsxwNocBx100KHkePxvS0vLEqukoYoxHpZo6P0PPfTQb6yg8iKE8MtE4359qjm3AVCSJKkx0jkBMHKv5ZIkSZIkSZI23uAY4HNzHOKWjgHW5gghHJPX2GKMK6ZOnbraKmkTpHr61yVz5sx5zPIpR/twqmOAXzk4Cjw5NgBKkiQ1QmDrZGIdsAFQkiRJkiRJGirHAKuoenp6SjHGN+U5RKukoVq5cmUr8IpEP28c/6u8rclfJRp6y9q1aw9MMnCXnSRJUkOkMgL4vnAWay2X6iWexJZEWgEYzdrwJfzWoqRN209mU2Ibxj/xb7inSHJ/kCRJdXbppZf++qCDDloF7JTTEGf19PSM8dQoDdX48eNfD+yQ0/Ac/6tNcv/9978cGJ1i7NVq1QZA5cq0adOu6+3tvRvYLrXYQwj7A8ndUzYASpIk1VnsImMVuyYS7q1WTENa23exI1W2BXYkY1vi4D9HtiWwLYHtiEwa/K+MBUax4WTyCQAMPOl/8BGI5af8FY8AjwEPDf7zWuAB4F4i9xG4D7iPyN3A7ZS4hfu4KyymanWkguwz89kO2IcquwA7E9gJeD4bfpm2FTBxcE+ZCPCUu/+pe8pq4MEn/gTuJ3IbcAeBVcCtlLg+nMZdZl1KaH+osS+RnZ9hf5gEBPcHSZJUT11dXbXly5efE0I4JachPj4G+CdWS0OU59MjK47/1aao1Wr7Jxr6I2PGjFlpBZUnIYRYqVR+Bbw5wfBfmWLObQCUJEmqt1XsTDrfIrvNgukfxblsT4m9gBdS44VkvIjIC1nFC4FRhMf/g09+23uaf2/othj8s80/v00+zT/XgEkMxDJ3AjcTuYHA9URuAK4ncH3oZr0VlXK4z0BgPvsS2Y/Iy4CXAy+jNni6QNjsv2LC4J9d/2lvevyfByCWeRC4jsC1RP5A4Ar6+YOn40o52B+qvILAS4nsR+Bl1Ni+IfsD/JnAH6hyBQNc6f4gSZL+6UcWG8YAn5Lj+GZjA6CGoKenpwS8Kef3nLQpDkg07t9Nnjx5wPIph2wArCMbACVJkupvz4RitQGwiUUIlNmLyKsJHAC8GtgbGP/EL8ADm9vUV493nl2AXQi8/omYN1gXy1wDXDn45/dswe8cASg1aM+ZxwuJHE7gcCKHUcvFeIiJwIFEDgSOIwJtrI9l/gT8gsBFlPhlOI2HraBUt/1hMjW2feLzPDR4f9iwR7yLbHB/mMdV1PgFGRe7P0iSJIDLLrvsNwcffPAdMcbn5TRExwBrSCZMmHBojHH7nIa3tlqtOv5XmyrVBsDLLJ3yKMZ4eQghxdD3vOCCCyYdeeSRD6QUtA2AkiRJdX/i5QWEZGL9mwVroqV5PDvR8kSj3+P/OoFQ2EtuA14x+GeDR1gXy6wkcAnwa/r5RTiLB10d0gjsOV20cCeTgdlEOojsMvjZk3etbPgW6CuJnMoA6+M8LiNyPjXODYu42epKw7A/rOJwAscktz9EXkXgVUT+gwHWxzKXEjifwLnhDJ+tJUlqRoNjgM91DLAK87weY27H/4YQls+YMeMhq6Sh6uvr27K/v//FiYZ/uRVUHg0MDPyxtbV1gPR600JLS8t+QF9KQdsAKEmSVPfHRl6QTKwZ11mw4orHsxMlJhM4DJhMWqdTjpQ24DVEXgO8jzaqsZPLyKhQo5fn8bvQRc00SZu47zze1AOzWcUbga0LcFmtRF4HvI6ML8YyvyfQQ+Q7oZs7rbq0kftDmdbBU/6OeWJ/iAXYH+D1RF5P5H/iPH5HpAf4rvuDJEnNxTHAKoq8j/+t1WqO/9UmWbt27f4hhFKKsddqtd9aQeXRrFmzHq1UKn8BXpJg+K/EBkBJkiQ9h5el8+ZoA2CRRAjM41VEjgJmAfuZledUIvBaIq8l8ElWcWcscy4ZZ3MfvwqLqZoiaSP2n/nsRpX5rOIEYJuCX+4ribwS+FTsZCmwiAdZ7n4hPcv+UONE4HhCwfeHyKuAVwGfjmUuIHKm+4OeskTK7EiJMbkK6jHu90TspzzPpPKFvi1zuAfuGufyKlfSP8hYF7r5k4koPscAqyjGjRt3GLBdTsNbG2NcapW0KUIIqY7/vXPGjBm3W0Hl9j0qxt+FEFJtAEyKDYCSJEn1t38ica7jedxkuQrwglXmQOCtwBwiO5mRzbIjcDI1TmYSf4+d9JBxZljAH02N9A97z4am4ynUOJkaRxIoNVkKWggcDRzNJG6K8/gyj/LN8F0ecXXI/WFwf4j8GzVmQhPuD/AGAm9gEjfFMl/iMb7l/iDgO1SZkquI2vgI8BlLA1T5F4K52AwfJ+PjpuGf3ArsahqKr6urq9bb23sO8O6chugYYG2ULMtmx5jbo7qXOf5Xm/yeGuOrQwjJxR1CuMzqKed+D7wzwbiT+/JS5lqTJEmq40vkfHYjnZOP/hq6GLBqia61E9g1lvmvWOZG4DLg38Hmv2G2PYFTiFwZy1wR5zE/nsJ406Km339mU4rzeAdl/kxkxWATXKnJ07IHka8yhltjmU/FE9jKlaKm3R/KvJMy1xJZARzl/sAewNcYw62xk0+6P0iSVFx5H006OAZYekY9PT2lGOMbc/u+EaPjf7U5e2CSJwDGGB3/q1wrlUq/SzT0F55//vnjUgrYBkBJkqR6qpLSS6QnmqX2st9FFjuZEsv0UOJG4GPAnmamLvYncjr93B7LfCWWeb4pUdPtQRBimdlM4hoi3wZebFb+yVbARyhxS+zks/E4JpoSNc0zyuP7A5wF7GVWnmZ/CHzU/UGSpOL67W9/e0kI4Y4chzirp6dnjJXSM8nz+N8QwmPr1q1z/K82ybJly7aFNH+eG0K4wgoqz2KMVwLVBEPPRo0atV9SAbvcJEmS6vk2ltCR0YErLVgiL1CnMD6WeS+ruJnAhcBsNoyWU/2NY8M4nxtjme/Hsg1QaoI9CELs5I2U+SPQg409G2NLAh+kjZtimVPjbNpMiQq7P8zjTaxyf9iE/eGvscypsUyrKZEkqRi6urpqwDl5fg4ZHAMsPa0sy3J7SmSMcfnRRx+9xippU5RKpZcm+969oblKyq329vZHgOsSvb9ekdTntMtNkiSprg5P58mWP1iunJdoPs+LZb5IP7cBXwRPncuRVuBfgatjJ9+OJ7KHKVEh96EyL6bMxQTOBV5qRoZsEvC/TOJPsZOjTIcKtT/MZW/K9BE5B3iJGRmyrYD/Ba6O85hlOiRJKgbHACtVfX19LY7/VYHtm2LQIYQ7Ojo67rd8yrsYY5K/b8yybJ+k4nWpSZIk1ekB911sC7wyoZB/b9VyupZOYoc4jy9T40bgvcB4s5JbJQLvoMpfYidfjScyyZSoEPvQqYyJZT7FhnHxk83IZnsRgfNjJ0vjCexqOlSA/eHTZFwJHGpGhmF/iPw0lrkglv2yhyRJqevo6PgNcFuOQ3QMsJ5Wf3//YeR0/C/w6OjRoy+wStoMSTYAxhivtnRKQZZl1yZ6jyU1ycIGQEmSpHppY0pCz183hW7utWg5e9k4ga1imS8ywF+JvAcYbVaS0UrgFKpcF8vMjV2+iynhvWgeHTzC1cBHwNG1wyowgxJXx07eE2dTMiFKcH+YMbg/fNj9YdjNZMNpgKf4HCFJUsKP/CFE4Nwch7jluHHjplsp/dOzfox5Hv+7bPLkyQ9bJW3GGkq1AfBPVk+JrNW/JBq6DYCSJEl6uidc2hOK9dcWLEflKNMaO3kPJW5gw4l/Y81KsrYFFrKKS+I89jEdSmovOo7RcR7fILIcHGs9grYk8GUm8os4n91Mh5LYH05lTOzkdCJL3R9G1DgiX2UVv/C0UEmS0pVlWd5HlToGWE/R19fXEkJ4Q17jCyE4/lebK9Wf015j6ZSCWq12baKh79jX1zcxmWdMl5okSdLIGzzFpyOhkG0AzMvaKTMTuIbAl4GtzEhhHEjkd7HM+z3lS4nsRS+mjcuInGQ26iTwWmr8Mc7j7SZDud4f5rI3j3AZgflmo24OocQfYydvMxWSJKVn6tSplwC35vZVJIQjHQOsJ1u3bt1kcjz+N4Sw1CppU61YsWInEv25e6lUcgSwkrDddtvdAKxPMfb+/v4XpRKrDYCSJEn1MIkjgO2TiTfwK4vWWPF4doplzgYuAF5oRgppNPB5JvKLeBK7mA7ldj8q807gCuDlZqPuxhP5buzk2/FU/AWc8rc/dHIcGVcALzMbdTeBwPdimbPcHyRJSsvgGOCf5DhExwDrqc/9OR7/G0JY2t7e/ohV0mas730TDb0WY7zWCioF+++//3rgpkTDf3EqgdoAKEmSVB8pnd5zF91cZ8kaI0KIZf6NFq4F3mxGmkDgtQzwu1hmmslQrvajMq2xzELgLGBLM9LQfeIdPMJv4lx2NxnK0f5wJoFvAVuYkYZ6J4/wa0eGS5KUFscAKxV9fX0twBvyGl+tVnP8rzbv/TbdBsC/2vyqxKTasLpXMs+XrjFJkqQRfoE8li2ANyYUcm+AaOUasFbm8zzKrAC+Bow3I01lW2B5LPOxCMF0qOH70SmMZ8MJpHPNRm68gowr4lwONxVq6P5QZgKwDDjebOTGK6mxMs7nMFMhSVIaLrnkkkuB2/Man2OA9bjB8b/b5jS8R7MsW2aVtJlSbQC8xtIpJSGEVBsAPQFQkiRJg0bzBlI6OSlSsWgNSPs8jqHGVcAUs9G0MuC/KPPtOJs206GG7Udz2Zl+fgWeSplDW5OxPM5L6mRhFWl/2DCy/lc+r+R0f6jRGzt5m6mQJCn/urq6asDZOQ7RMcDa8A4Q45wch3eBJ6BpGKTaAOgUJ6X2efKXREP3BEBJkiQ98cT1bwlFW6WNCy1aHV96yrTGTr5KZDGwlRkRcCxbsTwex0RTobrvSfN4ORmXAS8zG7nVRuQ7scyHTYXquj90sh8DXAa81GzkeH8IfDd28iFTIUlS/oUQHAOsXMv7+N8Y49lWSZu5hgKwT6Lh/9UKKiW1Wu36REN/4eDnYe7ZAChJkjSSL5DzeS2Rg9IJmMvCN7jPytUp3XPZHriIwClmQ/9wLx5OG33xZLY2GarjnvQqIj8Hnmc2ci8An45lvmgqVJf9YR77E/g5sJPZSGB/CHwmlvm8qZAkKd+mTZvmGGDl2vr16w8HtslpeI8MDAwstUraHCtWrNgWmJBo+DdaQaWkra3t5lRDX79+/e4pBGoDoCRJ0kiKvDepeDPOtWh1Whqd7EfGSuD1ZkPPYD/Wc5FNgKrjnrQCPHkyMe+NnXw1bmgIlEZmf5jPK4isIN1fijSr98cyX3F/kCQpv0IIEccAK8/vAjkf/ztr1qxHrZI20+6pBl6r1W6wfErJEUcccTeQ5L5drVb3SCFOGwAlSZJGSJzHC4kcnVLIDHCOlatDojuZQuAXwM5mQ89hP9ZzcTzB8dAawT1pPi8hcCGOIU9T4BQ6Oc0mH43I/jCXl1FjBTDJbCTp3czj6+4PkiTl+HHeMcDKqb6+vpYY41E5DnGxVdLmqtVqSTYAhhAeu/zyy1dZQSW2biPwt0Rj3yWFOG0AlIb97ve+kiQNivxXYs9bvwtncouFG+Fl0cnbCCwFxpsNbaSX08J58ThGmwoN+540l72pcTH5HemjjXsPnU+n44A1zPvDPPYh40L3h+TfSU5inuOAJUnKq8ExwLfm9lUjhFm9vb1bWKnms3bt2iOAbXMa3qMhhIpV0ubKsmy3JF/zYvxrV1dXzQoqQamOAbYBsKBKTXfFLa6TIanhi5AkiVjmQOAtaQXN96zcCKe4k04C3wXazIaGeH++jja+E7t8NtcwLquT2IGMXmA7s1EAgf+IZbpMhIbpWXZHovtDgZ4j3hc7+X8mQpKkHD7GhxBjjHmeyLFFrVZrt1LNJ8uy3J7+GGP8aXt7+yNWScNgt0TjvtHSKUUxxpsSDf35SXx2u8SGaGKyHwKb7jG2t/BDuqu2NQmSJOCLpDVqax2B71u2EXyxKTOXwBk4gk2bbjar+LRp0LDsSccxmio/IZFvL2qjfTyWOdk0aLP2h1MZQ+Q8YGezUSCBT8QyJ5oISZJyyTHAypWVK1e2xhjf4D2jwr//xrhbonHbAKgkZVl2c6L3nA2AxVyR7NV01zzAHhZ+CGq80CRIUpO/NM7jGOCQxMJeErq51+qN2Jo4AVjg87eGwQfjPI42DdqsPQkCo1hE5CCzUUhfiZ0cZRq0yfvDw5xJ4ACzUUhfi50caRokScqXjo6Oy4Db8hpfCOHInp6eMVaqedxzzz2HA1vnNLyH16xZs9wqaZjslmLQIYS/Wjol6uZE7zlHABdSrQkbADP2t/BDufvNlyQ1s3gCWxH5anqBc6bVG6HUlnkD0eY/DePTZuSsWGZPU6FNVuZDRN5mIgqrROCHsZNXmwoN2Tw+QuBfTESh94cfxXn+7EqSpFy96G8YA3x2jkPccty4cdOtVPPI+fjfC+bMmfOYVdLm6urqyoBdEw3/NiuoFMUYb0409F1ijLmf7uUvIYf8FE5H892FTLHwQ7JfPI6JpkGSmlQLXwV2TCzq61hIxeKNwGNUmUOAHwAls6FhNBHoiWVaTYWGvC91Mh34pJkovLEEfhLns52p0BCeW2YS+S8zUXhbEN0fJEnKIccAKxcGx/++Mcch9lglDYfXvOY1OwCjk3x/j9EGQKUq1bU7esWKFdvmPUgbAIfusGb6AVk8ma0JHGrZh6SFUY5bkqRmFOdxdKInKn0lQLSCw7we5rI3cD7giBSNhFcCHzEN2oT3uzP9WUDTeB6RH8bZNqFrI/aHMtsAi4BgNprCztT4gfuDJEn5MTgG+Ja8xhdCmNXb27uFlSq+++67bwqwVU7DW7NmzRq/yK7hsnuqgYcQbrd8SlF7e/sDwNpE77vn5z1Gf+g/dCWqHNM0VzvAO4E2yz5kJ5oCSWou8Xh2ItKdYOj3A9+2gsO8HspMIOMn5PeHZSqGD8dO9jMN2mjrOZ30TqnVZn0gcTiT+JSJ0EasldOBHUxEUzmCSZ74KElSXoQQInBOjkPcolartVupJng1iDHPpz0ucfyvhnGt75Zo6I92dHTcbwWV8PPOXSnGXq1Wd8l7jC0usU1Zlbw/nsKZ4Wv0F/pD73jGEXmfBd+U5HFQnMvhYRE/MxmS1ATbfhctrOLHkOQpwV8N3TxqFYd1PWSs4jvAXmbjKf4O/I3APUTuI3IfcC8Z9xF5YPA5u0qNh57mvzuBQAaMZUNT5dZEtiZjeyK7AHsCk5owp60EvhW7eHXoYsAlpmfdm8r8K+mObIrArcB1BFYRuQv4O4FHgbVEHhv8T21BRhs1xgM7EtiWyB4E9gK2aeLyfzDO47KwgPO9E/S0N1gnbyMk+2XXyIaTcq7fqP0hMoHIDu4PT/jQ4P6wxDtBkqQcPNjEeHYI4T9yHOJs4FwrVVwrV65svffee4/O8z1ilTRcarXa80NI8hD8O6yeErcK2C21oFM4AdAGwE2zG/2cCHy50FfZwofxdIhNV+IjYAOgJDWFO/lv4JAEI3+QdXzFAg77q8tHgKOa9OqrwF+A3wN/JHAjkZt4jJvCd3lkJP/ieCKTWM8eBF5OxquIvAp4OTC64Dnfj1XMB77uzadnvD/m8zxqSa2RO4n8nIxLgUsZyzXhS2zWN/zjyWzNOg4g4yBqvJ7Aa4HWJlkCgchZ8QReHc7kRu8IPeXemMvOBPcHBjiQyEFEXkfgEJrnZ6aByHdimf1DN3/1jpAkqbE6Ojou6+3tvRXI5S+YQwhH9vT0jPEEtuLK+/jf0aNHL7dKGkap9kE4/lepuzPFoGOMO+c9RhsAN91H4lx+GBbx9yJeXOzkRcCplnlzksjhsZNjw0K+azIkqcDb/TyOIfLeRMP/cjiLB63iMK6H+byWGh9vokt+kMgvCPyMGpeTcVWjTpQMp/MA8LvBP98EiLNpYwKHkNEOtAMvA0IB6/CJeDI/DN/gPu9CPa0NzX95PyXzaqAHWEo3fwgbTvUavj1iw/2xfPDPhlHtkXYy3kpkJtBW8FUwkRJnx1M5eHObpVQwG5r/JuZ+fwj8mMiyEdwflg3+IR7HRFqZRuBfgBlNsT/A2fE4Dg5nsdabQpKkBj6ahRArlcrZQF5PAdxy3Lhx0/EUwMKKMc7JcWw/nTx5ss+rGs49d6dEQ7/N6inxz5pVKZ6+GULI/RQ4GwA33TZk/Dh2MaVo47ZimQnAT4BRlnlzdwG+EU/gUk9ZkKSCPqR28hoi3yHNhqL7KPppxvVeD6cwnn6+C5QKfqnXAt8n40Lu43dhMdXcPootZh0bTmT+GfDBOJfdyXgn8A5g9wLVZCvW8wng37wT9TSfVYcCb8hpeI8Q+DbwrbCAlXXdH7pZzYaGw574LrallXcA7wF2KfByeDmP8Gny+8tE1Xt/mM9h1MjreK+HCXynIfvDhi/I/N/+0MI7Cby74PvDfrTxKeB93hmSJDVWrVZbnGWZY4BVd4Pjf3M71SSEsNgqaZilegKgDYBK3Z2Jxp37BsDMtbVZDmUVny/SBcXZlIAfAftY3mExjhI/jCexpamQpGKJnbyIwPnAmCQvIPCJweYHDZd+vk6xmsqe7EEiZ1Dj4NDNPqGbT4czuDzPzX9Pu+wXcXPopotu9iQyFegrUI3K8UT28EbUUz6rusgIfDGHod1D4GNUeX5YwMn1bu75p73hW9wTuvkfYE8C7wRuKvCyeM9gU6jcHzJiLveHu4GPUmXX3OwPC/kisCdwHHBzgZfFqXEer/fukCSpsaZPn/5b4Na8xvf4GGArVTw5H//70KhRo3qtkobZ9onGfaelU+JsABwhNgBuvlNjmU/HAowSi6cyhq34AdBhWYfV/gzQO3iyoiSpAOJJ7EBgGbBNopdwLTtyupUcxjUxjxnAsQV9EfsP4HlhISeGRVxWhIsKEMNCLgrdHE7ktcDFBbisVqp81LtR/3AH/yuwf44iegz4DAPsGRbwqXAm9+dqb+hmfVjAdxjFPsAHoJCN8hmBb8XjGecN0uTu4G1EXpWjiB4FPs0ALwjdfDqX+0M332YUewMfBB4q5P4Q+ZZfYpUkqcHPHSFE4Owch/j4GGAVTM7H/y5x/K9GQKonAN5j6ZQ4GwBHiCOAh8eH6WT7+DzmpzoOOJ7EDjzCecCBlnNEvAa4MJaZEbq513RIUrriXLZngJ+x4RSQRC+C96b6zJLLdJYZS+QbBbusO4DPswULw5d4rMj1Cwu5BJgSy/wr8L+k+81PgGPjCXwmnMmN3pmKpzJmcNxrXj57ltHK/HBa/seUhK/RD3whzuWHZCykeF+S250WPsWGkcdyf8iDpdSYHxZxeyL7w+fjSfyQARYB0wq2PPZggE8Cp3qnSE9jPaczhh8nEWuVCvDCnEW1lBofdyH9g4x1JkH/yDHAqre8j/8FeqyShtOFF144oVqtjk0x9hCCvQZKWqlUuq9Wq6UY+rYxxjD4ZY1csgFw2HZaTmAVL4lzKYdFXJVS6HEexzDAl4HnWcgR9Wrg6tjJiWEhPzEdkpSeOJftyfgZsHe6F8HZYSHLreaw+jiwW0GuZYDAl4l8PHTzaFM9znfzg3gcy2jjdOCtiV5GCyU+BJzgbSke5UTg+TmIZDWBU0M330puX1jE7RFmUOYE4H+A8QVaISfHeXy30eNV1SCPcBKwSw4ieZDIqWEhZyW3P5zGbRE66GTu4Kj1Iu0Pp8S5fC8s4nfeLNI/3Ptn8SDwYBKv/uUcNpVF7nNvkTbO9OnTf9vb23sLsGsu98MQjurt7d2ivb39EatVDPfee+80cjz+d/To0SuskoZTrVbbMeHYbQBU0rIsuz/RBsBRF1100XhyPDXGEcDD60AyVsZ5fCaekNuHpCf/EOClscxFRBZj81+9bE/g3Fjm+7Gci1/GSZI29nPzeHYabP7bJ+HLeJDAu63mMK6LE9mLopyQErmcyKvDAt7fbM1/jwtn8WDo5l8InAikOlbkbXF+/o+i1wjfzl20EHNxuluFGi8JC9Jr/ntiX4AYulkEvBS4qEDLpERkQezyi6FNuT/k4/TH5WS8JMXmv6fsDwtZOLg/XFyo/aHEgjibkneMJEkNes7I/xjgsTHGDitVoPeEGGfnOLzzHf+r4Var1XZI9oWtVLIBUEkrlUr3J/x5mevfvdgAOPxaiXyIErfHMt+M8zkgQsjNgjyOibHMvFjmEuAq4AhL1hD/CtwQy3w3zuVwf6gqSTl/oOtkX1q4lLSb/yDwwdDNnVZ0GFX5LNCa+FXUgI/yIK8JC7nSokJYwBlkHArcnWD4o6gxzyo2uTt5M409/W8tgXl0MyOFkZ4btS90cysP0AF8oUAr5ZXcyVxvmCZzB8fQ2NP/1gKdoZsZ4QzuKND+0M6Gk0IL8gLEq9jKE4UlSWroM0YIi3Me4myrVAwrV65sDSEc5b2gJpPsCYADAwP3WT6l7LDDDlsNDKQYe4xx2zzH5ze9R84Y4F3UeBdl7o+RywhcRuDv9V+FTAD2A14O7GXdc6MNeDsZb2cSq2OZXwJ/InCLqUlYjQECa6hxG61cF07nAZMipS2WmQycC0xM/FJWsICFVnRY18YhwBsSv4w1BI4NCzjfij5VOIPLY5nXAMuBFyYW/olxNp8Li3M49kv1egds5Mmkd1LjTWERlxVuX1hMFfhALHMNsAAYVYC18vF4Et8Lp/GwN07TaOz+AG8M3fy2oPvD+2InVxM4oyD7Q1c8iR+4P0iS1BjTpk27vLe392/AbjkNcZZjgIvhvvvuawcm5TS8h9ra2i60ShoBqTYAPjRjxox+y6eUhRBipVJ5ENgmwfBzfQKgjWD1sRWBGcAMosnQ05oAzAJmuUZS/8Qa/NcMqEIs82dgBZEfhIVcYYKktMROOoGvs6FpO2X3AscF/JQZZp9PPP6bgaPDAv5kKZ/hY72bv8b5HEKNnwN7JxT6jkziaMBvSDfnZ9drgAMb9Cz8O6q8oSin/j3L3vDt2MkNBM4Ftk/8cnagyvuBj3v3NMH+sOHLCwc06K+/gow3FuXUv2fcHxZyVpzPDdQ4l5z/UHijnicGeC/wCe8eSZIa8Fyx4Zfj5wDvzWmIj48BPsdqJf6ekO/xv+c5/lcjIcuyHWJM8tclnv6norgfGwCHf29zXUnSiNoH+HcCl8cyV8R5HG1KpPyLpzImzuNbBLpJv/kPAnMd/TvMa2QuhwMHJ3wJN5HxutBt899z3j5ncDdwBHB9Yvf9O6xek8p4T4P+5h8xltcVvfnviVtsIZeQcRAU4AT3yHtjOd3RNxpSrRu1P/yALTi06M1/T3p2+A01DgJuLcDlvC+exA7ePJIkNei5wjHAGmE9PT1tgON/1XyvxzFuk2jcNgCqKM849ycaeq5HANsAKEn1sz+R82KZC2OZPU2HlNMXqHm8kEe4lMhxxbggvuZ415F4O8ntt683xu3UmNIsv4QflnJ3cyctTIGEGmkjHXFu8ieTaahlP4XxxAb84D7wRbr51/AlHmuqveEM/kaJwyH5psctCJ7wVfj9ocwEArMa8Hn0Obp5e9PtD4u4GQqxP2zJAF3eQZIkNca0adMuJ99fOpq5ZMmSsVYqXRMmTJgGTMxpeA9Wq1XH/2qkTEo07vstnQoiybVcq9W2znN8NgBKUv1NAX4fy347TsqTCCGWOZnIH4CXF+SifpN4o1o+0zqPfQhMTzT8uykxZfCX0hqCcBq3ETkakmlgaCHjX61ck1nHUcDoOv+tXwgLeH+zjpkPp3MTgcOBVYk/Mxwf57GPN1GRFytHA6Pq/Ld+NizkP5t2f+jmr0SOgORP4j4hzmVvbyJJkhrwPBFCjDHm+QS0LVtbW6dbqYRfBfM9/venM2bM6LdKGiFbJfq5sMbSqQhqtdoDid6DE/Mcnw2AktQY44Efx3n8h6mQGi/OZXfKXAx8HdiiIJd1J4HZoZv1Vni4FwzvAUKCka8n8sZwOtdZxE18uVvIFUSOTyjkt1i1ptuf5tT5b/x86OYDTb83LOCGwZMA70r4MkpEPutN5P4wfDcG/x26+ZDPDlxPjSOAvyd8GS0E/tubSJKkBj1POAZYI2TZsmWjgKNz+woT44+tkkbQVonGbQOgiuKRRJ/LJuY5PhsAJamBnxFE/ieWebepkBojzqYtlvkAGVcBkwt0aY9S402hO/nTRvK3Zk5lDOk2VX0kLOQSq7iZH94L+RGwKJFwD4jHs5NVa5L9qcwEYFr9/kI+F7r5oJkf3BtO5zoyjgZSPp3gyNjJflazgPvDiUwCptbxr/x0WMCHzfzg/rCIayHx/SFwVJxXkFPSJUlKTEdHx+UxxptyHOKs3t7eLaxUgo94IbQDE3Ia3oNr1qy5yCppBNd/qiOAH7Z6Ksg9+GiKcccYJ+Y5PhsAJanxvhTLzDQNUp0f0uYxi0lcA3wO2LJAl1Yl8NawiMus8oi8Xh9Nfn8w9ixvU1xAN1+0gMPkMf4dkjhJMdDCLAvWJOo73vPrYSH/adL/oQRncDmBk5NeRcG6FtIARwNtdfrbvhy6+ahJ/4ebq5vfEjkl6f2hZtO3JEkNdG6OYxsbY+ywROnJsizPpzf+ZM6cOeuskkZQkicAxhhtAFRRPJpo3BNz/dnuupKkXOzF3/aEHqlOL0jzODh2soLIT4EXFO8COTEsYImVHjHHJhjz32nhuADR8g2P8F0eoUYnaeT0aCvWDB9unEfk03X6uy5kJ0416c+wPyzgTCJnJHwJx8QTCvh81MxaOJ/AJ+v0t1V4gPeZ9GfYHxayEOhO9wKYE09kDyspSVIDPoYdA6xhtmzZslExxlmueTXx+h+TaPiPWEEVQYzxsURDn5jn4GwAlKR82JoW/tc0SCP4MNnJa2KZXiKXEOo6Aq2ePjD4i0WNxBoqsw2hjuM1h0vgI+Eb3GcFhzmti/gVcFYCoU4eHF2tQi9IDgN2rsPfdAMtvCV0MWDSn8WDvAeSHbleosT7LWKhTK7T/vAX4K1hMVVT/ixG8W5Csid1lxhwf5AkqREcA6xh/zFCzsf/rl69+mKrpJESY5yU8L3rCYAqCk8AHAE2AEpSfrwlzucA0yAN44schNhJeyxzEYHfQILNWxvvI6GbL1j1EV1Q7UBLWj8R4HfsyLcs3oj5ALA65zGO5lFeY6k0DFYDR4XTecBUPMfWu5h1tPDWBPaHZ/LOWGZHK6kheIDAUaE72TVfv/3ha/QTeQvwUJoXwHHxJHawkpIk1V+WZefkODzHAKe3nvJ8auO5jv/ViL7WhLBVwuHbAKii3IepNgBO6Orqym2fnQ2AkpQnVT5sEqTNF09hVJzHCZT5E4EKcETBL/n/hW4+Y+VH/Ml5emq3AoH3hC5qFm+EXlK7uRf4UgIr4XCrpc1UI/IvoZu/mIqN3B9O4zZisidljQLHPGsIb7GROWEBN5iKjX5+uJUNXyJI0WjW8+9WUZKkBryU1WqOAdawyPv4X8DxvxpRLS0tyZ4AGGO0AVBFkWoDYPba1752XG6Dc11JUo4EZvptemkzXn46eVEs83n6uZXIImDfgl9yDXhP6OaTVn+E11YXGTG5EyQvCGfwG6s3wkbxJcj5iOVgA6A22xfDQpabhiFayCLgokSjnx+Py/dIC+XGZ8PCZNd543TTTeBnScYeODGWczsuTpKkwpo+ffoVwF9zHKJjgBORZVkH+R3/+8BDDz30M6ukkZTyCOAsy2wAVCEkfAIg69atm5jbPcKlJUm50sIAbzYN0hBe1sqMjZ28LXbSR+AvwPuB7Zrg0tcTeUfo5quugjq4g1cB26b1BsUXLVwd0vw1HgK+nu+Nkv3jsfhDeG2qK3mAj5mGTdmGiWR0kuZ4lnG08k6rqOewEviEadjE/aHKXOCRBMMfT+AdVlGSpAY8Q4Rwbo7DcwxwOuvomByHd57jfzXSarXaxIRjtwFQRfFIqoGXSqXc7iE2AEpS3kSmmgTpOW6T2bTFecyKZb4P3E3gewQOA0KTpOAhIrPCQr7vaqiTwMGJRXxFWMAvLVzdLADW5zi+FsbyKsukTbCWyNvDYvzh+6Z+fJzB34APJfrZNy82z7OVhu5R4NjQnevPv3zfYou4Gfhwmi9kzLeCkiTVn2OAtbn6+vpGxxiPynGIPVZJIy3LsnGpxl4qlWwAVCFUq9VkTwDMcxOxDYCSlDeBA0yC9M/icUyMncyJZb7DJO4i8lPgX6HpTrW6ichrwkJ6XRX1XIAclFi8nv5Xz4/ubu4kcnbO18SrrZQ2Yd38Z1jINSZiM+3EacCVCUa+N/M51ALqGfaH94du/mIiNtMDfAO4KsHI94nzeL0FlCSpvhwDrM21bt26DmB8Xp+OHf+rOkl2n4ox2gCoQsiy7LFUYy+VSmNzm1eXliTlzo6xzATToGYXZ1OKnbw6lvlALPMz2riHwI+BY4FJTZqWX7Keg2zGaIDAgQlFewcPco5Fq/ub1fdyHqENgBriBzEXstAx88PyEdJFjcD7kgy+xjwrqKdRYSGnm4Zh2B8WU012f4juD5IkNUief+bjGOC8P8LFmOdTGs9x/K/qdB+MTTX2arVqA6AKIYSQ7AmAed5DbACUpFx+crC9SVDTLfuT2DLO4/Wxk/fFeSxhEvcTuBz4HDAZaGnqXQG+wE4cEb7FPa6WOid/PtsBeyQU8uKwmKqVq7M2LgZW5zhCGwA1FGsJnBg2fP5oGIQFXAwsSTD0Nw1+DkqPe4waJ7k/DOv+cCGwNMHQ3xzfxbZWUJKk+sqyzDHA2iR9fX2jgSNd2xLJNgCOGTPGBkAVQqlUejTh8G0AlCQNaXcebxJUVBFCnM9ucR4dscx7YyffjmWuYYAHifyCwBeIHAneB4MeIPKG0M0HQhcDpqMBauybVLyBHovWgLR/jX4CF+Q4xN3j8YyzUtpIXwjduR4rlaoPAOsTi7mNGsdbOj3J58IibjYNw/68+X5I7ll/FK28y+JJklRf06ZNW4ljgLUJ1q5dO538/sz9vq222qrPKqkeUj4BELABUIXQ39/vCYAjoMWlJUk5VHV/VuIvUMcxmjZ2I7I7sDsZuw/+8x7Ai6jxfz8ECubrWfQBx4WF3GoqGiiwV0Jn3NzCAi6zaA1S4xwCb8vtSm5jb+ByC6Xn8Dfgs6ZhBG7Cbv4SyywA/i2x0DtjF58PXdSsYtO7iS34vGkYgf1hEdfGeXQTOSmx0Muxiy+6P0iSVHfnsOELRnn0+BjgcyxTzp45Q8jz6Yzn7r///uutkuohy7KxMSZ5qP3ayZMne0iEivKZlGwDYJZlNgBKkqRiiPPZjirbEtmewI4EtgN2AHYisjuB3YGdNjzBPf5fMm9DfZEDPsxOfMVfpuVh0bNXOm9NLHYkXwNtSYVHeATI5zfdq+yDDYB67j3vP8JCHjURI2SA/6aFTmBUQlHvwSoOZcMXE9Tc+8Op4Us8ZiJG7DnuM0ROSGx/2JM7eB3wCwsoSVL9ZFm2uFarfSDHIc7GBsBc6evrG93f35/n8b9nWyXV7dU23RMAH7F6KooxY8Y82t/fn2r4NgBKkqSnvtPGE5lUl79pPW20PqkZJTKWgSd+qTSWEuOAccAEaownYxzxSf/ehj/bPfGnRguBpz+5z9P8hsMlBDrDAv5sKvLyEwFelMzaruV6BG3hhS/xWCyzjA0/6M5hgOxjlfQcKmEhPzENI3gbfpNVscy3gXJiob8VGwCb/XloWVjIT03ECO4PZ3BHLPNdYG6C+4MNgJIk1dG0adNWLl++/KYQwh45DfHIJUuWjJ01a5ZfLsuJdevWdbDh5/15dG9ra+vPrJLqKNUx5essnYpi8uTJA5VKZT3QmlrsjgCWJEn/aEeq3F+XvykDqk/z7z3xpPKkfw54dljjPEjgQ+xIt6f+5Uxgz0QiXct6fmvBGv32xzJCbhsA97ZAehY1Iu8zDXVQ5QuUOAEoJRT1m2OZfwvdOJKpWVdtxvtNQ10+qz9P5F1J7Q+BN8cuTgldOIpKkqR6fgSHsBj4YE7D26KtrW0G4KluORFjnJPj2M51rKnqLNUTAP2ZjIqmSpoNgGPyGlvmmpIkSWrssyLwPWCfsIAzbP7LpR0SifO34SzWWq6Gv2H9Jse7zW4WSM+yPn4cFnKNiRh54UxuBBYnFvbWBKZavab1Y0+nrtP+sIAbCMmNy9uWO5li9SRJqvNzw4YGwPy+YsY42yrlQ19f32hgpmtZekKSDYAxRhtlVTRJruksy3K7h9gAKEmS1DgryXhd6ObY0M2dpiOHL9WnMoYNY7DzLzh6LRdlWMANwF05DW9XK6RnUCXySdNQ1z37s6R27nKNt1i4Jt0fcH+os8+Q3rns7g+SJNVZe3v774Abcxzikb29vVtYqcZbu3btDGB8TsO7d9SoUT+3SqqzJPemEELV0qlgkmwAzPMIYBsAJUmS6u8mIm+nmwPCGTk+LUzwGNsnE2vVBsAcuSSncY2LJ7CV5dHT+EFYxLWmoX7CAv4I/DKtoHlDPI7RVq/JRL4fuvmLiajz/hD4dWLr5I3uD5IkNUSeTw4eC0y3RDl4vgzhmNw+Rjr+V40xJtG4vVdUNKmOtbYBUJIkSdxOYB7w4rCQ74f0TvZoPrVkGgBrtHG5BcuNS3IbWaunAOqfDBA83ashImcmFvF4RjHDwjXZ/lBzf3B/2CgTaKPDwkmSVF+OAdZzGRz/e2SOQ+yxSmqA1kT3fBsAVTSpnmo5Kq+B2QAoSZI08m4BTmEdLwwL6A7dyX6rpflEJqayxsJpPGzBciO/p/ZU2cXy6CkC3xscXa1625KzgQcT+1ycY+GaynfDmbkeK1dki4HV7g+SJOnZOAZYz6W/v38mMC6n4d07evRoJ5qoEUopBh1jtAFQRZPqms7tHmIDoCRJ0si5FjgOeGHo5uvhLNaaksSEZMYBXG2xcuQB/gA5vd8D21kgPUWVL5mEBt2OX+Ix4IeJhd0eu2ixek3D/aFR+0M3jwI/Suy5ucP9QZKk+osxnp3j8BwD3Hh5PoXxbMf/qkFSfW/xflHRpLqmc7uH2AAoSZI0vGoELiAwk514Sejm2574l7B0GgCvsVg5WjaLWQfclNPwbADUk/0iLOIq09BQixKLdyK3c7BlawKRn4du/mQiGvocmtr+MIm7ONDCSZJU50cGxwDrGSxZsmQsMNO1K/2TUqJx2wCooklyTccYPQFQkiSp4P4OfIYqe4QFzAoLWBa6qJmWxNUSaQAMNgDm7y0wpyNVPQFQT10PXzcJDS5BN7+HxJowS57g0RQyvmYSGrw/LGAlqZ3yXHN/kCSp3jo6On6PY4D1NNra2mYAW+Y0vHva2tp+aZXUIDYASq7pTRZCyO0JgI5lkCRJ2jy/JHI6D3Lu4KlfKpLAGgK/SyDS31us3K2dfP7wvWYDoJ5wGztynmnIhR7gZclEG5kBfNiyFdqt7MhPTUNu9oeXJBTvDOCjlk2SpDo/osd4dgjhP3Ma3uNjgM+2UnVfF47/lZ6eI4Al1/TmfL7mtonYBkBJkqShu43IYuCbYaEnrxVZ6GYx4DgKbcLi4UZiLuPa2uJo0Bmhyx8c5uS+7CHyqYQiflk8np3CN1ll8QrrdPeHnCjRQ5X/Siji/WKZHUM3d1o8SZLq+EqxYZRqXhsAH29EswGwjgbH/87IcYj+vFWNfdNKk+/pKhpPABxmjgCWJEnaOKuAr5JxCN3sGhbyXpv/JD2jWm7H74yzOAL6Wc9C05APYQE3AH9IKWRaHfNZYGuBRaYhJzfb6VwH/DGp/SHQYeUkSaovxwDrH+V8/O/fH3roIcf/qpFsAJRyIMboCYDDzAZASZKkZ3Y/8F0CR7ETu4Zu3hPO4DeBXJ7rJSlPSrn9wfuWFkdEloRvcY+JyFVN0jr9oGaDT2EFfhq6uddE5Epqp6O4P0iS1IjHuA2nAObV42OAVa9XzByP/w0hnDNnzpyqVVIDlRK9r20AVKFkWeYJgMOdU5eVJEnSU/yFwFcITOEBtgvdvCMsYIlj0CQNyQ7cTj6bhT0BUJDxHZOQM4GexOI9Inb5M6VCiu4P7g+bvYaOiBAsnCRJ9VWtVnP9pYE8N6QVzeD435l5ja9Wqzn+V43WkmLQqTZLSc/yeZBkM3gIwRMAJUmScmo1cC6BeVTZLXSzd1jAv4cFXBwW4zcRJW3aS+CGpuFHcxiaJwDqbiIV05CzPaObvwJXJRTyJFaxr5UrnL+zE72mIWf7w4Yx4VcnFPLWdLKPlZMkqb5mzJjxB/I9BnjmYGOaRtjg+N+8jly+a82aNb+ySmqwJHtkYow1S6dC3YiJNrXGGD0BUJIkKSdqwBVEPgW8jp3YJnTz5rCA7nAmt5geScNodQ5j2sKyNLnAD0M3601ELmuzNLGIX2/RCucHnnqdUzGx/SG4P0iS1JCP4HyPAd5isDFNI/3omO/xv+c6/lcNvj8CnlguafNkBiZJkpQPV4ZuDggL+Vjo5tf+klPSCFqTw5haLUuTc7xnfqXXAHiIRXN/UN1q4/4gSZKek2OAlffxv9VqtccqqZFCCJENh0SkGLu9PSqUWq3Wkmjouf1yvZuEJElqNi+L87g4dvK+OM/RVJJGUMzlCYAt0W+5NrOrQze/Nw05dR+XAfclFLEnfBXLVWEhV5qGnNqZS4H73R8kSdKzGRwDfEOOQzyyt7fXyQQjqLW19UhyPP734Ycf/rVVUg6kOna0ZOlUJAk3tdoAKEmSlBMtRA4n8AUi18Qyd8Yy34llZsdTGG96JA3fGywP5TKuLvxhUfP6kSnI8ZaxmCqBSkIh7xTL7GnlCiK6P+R6f+higEhvQiHvHOeyu5WTJKkh8nwK4FhguiUawcf6fJ+yeLbjf5UTqU6FsrdHRZPq7ynWuUlIkiTl0w7AsUAP/fw9lumNnbwnzmVnUyNpM+WzAXC1Y4CbVo1zTULupTXmM3jKV2G0uD+4PwyzzP1BkqSGfARnmWOAm9SSJUvGhhBy22AZQlhslZQTqTai+qVuFU2qa9oTACVJkhIwGphG4Mtk3BLL/CqWOTnOZXtTI2nIAo/lMq7VtFicpnRtWMS1piH3+8bFQEwm3sjrLFohXBNO5zrTkHOt7g+SJOm5TZs27UrgLzkO0THAI6StrW0WOR7/u3r16t9YJeWEJwBKrunNYQOgJElSgg+ehwBfJ2NVLHNhLDM7zqbN1EjaKDGnP0xq8T2wSZ1tCvIvnMHdwJ8TCvlAq+b+oDrtD6dxF/n+Zf4/BOz+IElSA+X5dGfHAI+QPJ+uGGNc7Phf5UiqDYCeAKiiSXJNxxhtAJQkSUpYBkwBepjEbbHMF2OZPU2LpGcVWGcSlBvR8Z4J+XlCse4Vj8XTO1LneHD3h5Hx4lhmrCWTJKn+HAPcfAZPVZye4zXpl46UJ6k2ADrVRYV7ZEkx6BCCDYCSJEkFsR3wXuD6WObCOI9ZEYJpkfQ01psC5cTNYSFXmoZEhKQafEpswX4WLWk3hEVcZRoSEZPaH1oIvNyiSZJUf44BbkpHQm6/fHHnpZde+mtLpBxJtQFwlKVTwSR5AmAIIbcHP9gAKEmStOnPUVOI/JQyf4ydvDXO9gh2SU8SPQFQuXGeKUjIOn4BxGTirfEqi5a0n5qCpJ4t0tofovuDJEkNdE6OY3MM8HA/duX4VMUQwuKurq6aVVKOpDqOerSlU8E4AniY2QAoSZK0+V5K4IdM4s+xk+NsBJQ0yBMAlQ+B5SYhoXJ9i3uAa5IJ2AYf9wfVr1yL+DtwbULry/1BkqTGcQxwkxg8TbEjr/HVarXFVkk5k+oJgDYAqmhsABxmNgBKkiQNnxcR+BaTuDqWme1oYKnp2QCoPHiUfn5lGpJzWTKRBva3XMl6hDYcxeX+MHJsEJYkqWE6Ojr+CFyf4xBnLlmyZKyVGhZHArkcqRxCuOO3v/3tJZZIOZPqz2xtAFTRJNmvFkKwAVCSJKmJvBjooZNfxTKvNB1S03IEsPKgL5zFWtOQmMAVCUW7Vzw2n79s0nP6Wfga/abB/WEE7R1PZYxFkySpYfJ88toWLS0tMy3R5osxzslxbGc7/lc5XJePJBr6KKungkl1mpoNgJIkSU0n8Frg8tjJV2OZCSZEajqeAKg8qJiCJJ8hUmrwKbEF+1m0BEX3hyRVk9ofWljDyy2aJEkNk+vRq1mWOQZ4M/X19W0ZQpie21eOGM+2SsqbEMLDiYbuCYAqGk8ANKGSJElJKRE4Bbg2dtJuOqSmYgOgGq9qg0+SalwNPJZQvC+xaAlqcX9IUsZVkNDJrpn7gyRJjTI4BvgveY0vxjizt7fX08Q3w9q1a2fFGPN64vLtjv9VTtkAKOVDS4pB12q1R/Mamw2AkiRJ9bEjgeVxHl+Is2kzHVITiI4AVsP9NZzJjaYhPaGb9cAf0gmYva1acm4Ip3OTaUh0fwhcmdDzkPuDJEmNdU6OYxtbq9VmWKLNeDYM4Zg8rz3H/yqXrygxJtsA2NXVZX+PCvUxlmLQWZbldg9xg5AkSarnw2zkfWzFJXEeLzQdUuF5AqAa7ZemIGkrk4nUBp/0RPeHxOu3MqFoX2zBJElqKMcAF1Tex/9mWbbYKimPEh4BnL3iFa/w1FQVSaonAK7J7SbhmpIkSaqzyKuI/DF28h6TIRWaDYBq9OeNDT4pC1yTULQ2AKYmc39wf6hbrO4PkiQ1kGOAi6u/v/+oPI//nTp1quN/lVepNgAyatSoLS2fCmRUikGHEB7Ka2w2AEqSJDXGGAJfjvPojmVaTYdUQMERwGr4GvyVSUi6fik1AO4cj2ecRUtI1f0h8fqltD/sGsuMtWiSJDXw1SKEs3McnmOAN12eT0/sCSFES6Sc7onJNgBmWWYDoIok1QZATwCUJEnS04h0EqjEE9jKZEiFu78HTIIaaFXo5q+mIWHruTahaAMlx3wm5PawiJtNQ8KypPaHjIy9LJokSY1Tq9UcA1ww559//rgQQrtrTtokjyS8n/vlSxVCV1dXBmkejpLnEcAtLi1JkhriHiLfzHWEgRZ4ykkuGTABGEdgC2AskUmD/97WlnQzRA6nxG/iSUwLp3GbCZEKIqOG33VW43i6V+LCmdwfy9wF7JDInrc3cIWVS+LZ0/0h9f2hm3tjmbuB7ZIIuMbewB+snCRJjTF9+vSrKpXKtcDeuXw8HRwD3N7e/ojV2jijRo2alePxv7dNnz79t1ZJuX0ljjHZEwBtAFRRHHrooW39/f1Jxp7nEwBtAJQkqTHuDAv5z8K8MHXRwiq2pca2lNieGs8jsBuR3QnsBuwGPN+yP6sXM8Cv44lMC6dznemQCqFmCtS4D2d+aRIK4VpSaQDEEwCTkbk/FGh/2C6RWN0fJElqsBDCOTHGj+Y0vMfHAHtq3MZz/K+0iWKMD4cQkoy9VCrZAKhCGBgYGJVq7FmW2QAoSZKKK3QxANw5+OfpX6qOZxxt7E3kpdTYh8CrgP2BLczgE55PlV/G+RwRzuBq0yElLtoAqEZ+OHOZSSiEPwOTE4l1T8uViJr7Q4H2h0PdHyRJ0kY9AtZqi0MIeW0AfHwMsA2AG+H8888fB3TkeK2dbZWUZ3k+vWsj7i8bAFWU55JRCcee21NEM5eWJEmqy0vVN1kTzuDysIAzw0LeG7o5jJ2YSMYriZwM/Ai4z0yxHTUuimVPyZCSZwOgGmct8CfTUIh95M8JxbqrBUvCYwSuMQ2F8OeEYt3NckmS1FjTp0+/CvhLbl8nYpzR29vrF8U3wqhRo2YBo3Ma3q2O/1XehRAeSDj88VZQRfk4SzXwlpaW3DYR2wAoSZIa96LVxUA4gz+EhZwWuvkXdmI7Mg4k8DFgZROnZnvg4ngie7hKpKTZAKhG+WPoZr1pKMLDEtcmFO1uFiwJV7o/uD+4P0iS1LTyfMLeFoNjgPXc5uQ1sBij43+Ve7Va7d5kXwND2NoKqghijMk2AN5///0P5TU2GwAlSVJ+Xl66qA2eEvip0M2rCbwI+H+kdbrFcNmJKsviyfhCJ6UqswFQDXOFKSiIWlLPQNvFUxlj0dwfVCcxqf1hh3hKut/ulySpKKrVaq5H7A6OAdazGBz/257X+EIIjnFW7pVKpWQbAGOMk6ygCiLVnxFU58yZ81hun6VcV5IkKa/CAm4I3XwydLMvgUMJ9EBTnViyF+s5Lx6X25EOkp6dDYBq0AeoDT6FKeUi/g7cl8zKe8QxwO4Pqlspu7kTSGV0VcY6nm/VJElqrJkzZ/4J8nuKcIxxpmOAn11bW9vR5Hf8723t7e2+byj3BgYG7ks19hDCVlZQBZFqA+CaPAdnA6AkSUrjxWYBvwwLeAsD7AZ8Pu8PWcPoENr4hitASlLVFKhBVpqCQklnzGdwzGfuRfcH94eGcX+QJCkfzs5xbGMdA/wcr1whHJPj8Bz/qyTMmDGjn3R/v2QDoAoh4RHANgBKkiQNl/BNVoVuPkgruxP5FLC6CS77+FhmntWXkuMJgGqER9mRv5iGQrkhmUijJwDm3MPsxPWmwf2hQU9Fu1kuSZIazzHA6cr7+N8Y44+tkhKS6hhgGwBVFKk2AN6T6+co15UkSUpR+Ab3hYV8DHgBgdOAgYJf8ldimVdaeSkh0QZANcQ1ocu1VzC3JhTrbpbL/UHuD0//Auf+IElSHjgGOF2jRo16A/kd//u3jo4OTxtXSpJsAAwhTLJ0KsrHWqJx2wAoSZI0Yi883dwbFnAygZcDFxX8Yfh78VTGWHUpETYAqjGuNgVFe9jhtoSi3dmC5fpzyf2heDW9LaFY3R8kScqPPJ8C6BjgZ3qcijHPpyM6/lep8QRAqbGSbAAMIdgAKEmSNOIPXQv4M91MI/Iu4IGCXubePMLnrbaUCBsA1ZAPRBt8CqfG7QlF+zwL5v6guro9ofXn/iBJUl4+lkNwDHBili1bNj6EMC2v8cUYz7ZKSkySDYAxxq0tnQpiVKL3YK73DhsAJUlSYQSIYSFn0cI+BC4o6GWeFOdzgNWWEtBiA6Aa4k+moGCypE4AtMEn3w/L7g9FU3J/kCRJQ9fe3n418Oe8xucY4Kd5Lcyyo8lvs8TNjv9VavLexPMsRi9btmy8FVQBpNoAeHeunxdcV5IkqWjCadzFAo4C/gNYV7DLy6jytdjlc5yU/7dBGwDVACUbfApnvQ0+Gq6HZPeHwqm5P0iSpE2W5xPbHAP8Dxz/Kw2vLMvuS3g/2MEKqgAcATwSe5vrSpIkFVGAGLr5Ehmvg6RG523MxR3AnbzLKkuS/sF94TTuMg0Fe6b5JmuABxMJd4t4HBOtWi7dE87gbtNQsP2hm9XAQ4mEOy6egidVSJKUl+cIxwAnY3D871TXkjR8arVasj8/a2lpsQFQycuybGyiz0+OAJYkSWrYw9gZXA4cABRrDEHkc/FktrbCkqQnud4UFFY6p3yNYifLlctnR/cH94fG63d/kCQpLxwDnI4sy94AjM5peDdPmzbt91ZJCUr20AhPAFQRxBjHpRi3JwBKkiQ1+oGsmzt5jMOAJQW6rK1Zx8etriTpSW40BQUVHfOpzX0gdn8osNsSWofuD5Ik5ek1I8Y8n9w2NsY40yoBMDvHa+jHjv9Vkq/IIdyecOzbW0EV4BkkyQbA9evX2wAoSZLU8Jei7/IIO/Em4MfFuShOjCfwAqsrSRr8XPCEr+LWNp0Gn5oNPjnl/uD+kAfuD5Ik5ekxIuejW2OMTT8GuK+vbyLg+F9pmJVKpZRPALQBUEV4BhmX6P2X6wbAFpeWlI+9Arga+CVwDYGbqfEQkf5cR50xnshWBPYCXgUcBmxlOSXl9oGyi4E4m7cxifXA2wtwSS1k/Ccw1+pKkoAbTEFhpXTC13aWy/1BdRSTahB2f5AkKUc6OjquqVQqfwb2yeWrRQgzent7t2hvb3+kWWu0bt26o4FRuXwMjfGm6dOnO/5XSZo6derqSqWyBkiuCSmE4AhgFUGKDYADM2fOfDDPAdoAKDXWHcDpwHdDN7emfjFxNiUmcQRwPHAMULLEknL3crSYapzNcUxiLPCm9C+Id8QT+GQ4k1usrtTA56AuMv7ObtR4MTX2IbAXkf3NjOqq6ojP4j7AcBvpDFXa2oLlUOb+UNyHEG4jJLOXuT9IkpS3R4kYF4cQPp7T8B4fA9zTxPXJ7SmIWZb92DtIibsd2DvBfcEGQBXBlgnGfG/ex97bACg1xgPAxxjFovC1nJ/yNwRhMVVgBbAinsALKPFZ4M2WW1Ie96t4HG+jjQuBQxK/nNbBUwBPtLLSP4unMJ4BSqwj0MbEJ+6b9U/zghnYEmh9mv+ZCQQyIqOBrcjYishWbDj5eBKwE6vYCxg9+L8jNcYYT/gqsHvT2Xht8MmlzP3B/SEPL2LuD5Ik5e7jecMI17w2AD7eANeUDYB9fX0T+/v7p+S4Nmd7BylxSTYAAs+zdCqAFE/fvCfvMdoAKNV9Z+ACAieEM7i70Jd5JjcCx8R5zCLyTWAbiy8pV/vUWayNJ3A0JS4B9kr8s+VdcS6fDou43cqqqGKZCcCOBLajxk7A9mRsPzhKbgKBicBEYMKT/ox64qsWJaD6pP/BbJPutcFgrIdy6YHwNR4yDQVV40FP+NJmuC+cxsOmoagvNjyYzgOd+4MkSXnjGOD8yvP4X+DGjo4Ox/8qdan+PmVXS6cCSO4EwBjj3/Meow2AUh33BODjLOBToYl+bRwWsCSexCsZYCnwUpeBpFztUWdyf+zkzQQuI83jph83ioz3A++xqkr2QanMBDL2ILI7kd2B3YHdBv91d2DME09UT27E87Q96XG3mYICy3gwmbdIGwDdH1T//aGWTLTuD5Ik5ZBjgHNbl9yO/x08OVJKXaoNgJMuvPDCCVOnTl1tCZWwcQnGnPufr9kAKNXpOR04OXRzejNefDiN2+JxvJ42KsCBLgdJudqjFnJN7KSTwA8Tv5Tj4kl8xNNdlPuHojLbENmXwIuBfYjsTWBvYOeEfnkt5ZENPkW2ngeT+QmOJ3y5P6i+Bnhwk042bgz3B0mScijLsh/FGB0DnCOD43+n5jW+EEKPd45SF0K4PcY0z+wZGBjYFbjKKiphyf18IMZ4a+6f6VxXUl18tFmb/554iDqLB2llJnCdy0FS7vaohfyIyBmJX8Z4Bnir1VSuXoiOZ6c4j1mxTFcs89NY5g7gHgI/B84A3k1gKrCz2ZI294azwafQWhIa8WmDTw4fdt0fCq3N/UGSJG2e9vb2vwDX5PZxNoQZfX19WzZTTfr7+98ItOU0vL9OmzbtSu8cpa5Wq92ecPi7WUGlKsYYgG0SDN0TACVxLt38t2mA8A3uGxy1eTkw1oxIytcmxXuBycBe6T410wkssphqyPI7jtG08GoyXge8BngVsAPR3Eh1+hyzwafI5e3m0VhmHfn9BdCTbRUhBPwEyNEzovtDkfeH03g4lhkgjZ/zbmXFJEnK6TNFCItjjPvmNLyx/f39M2iiUwBDCMfk+GSyH3vHqCD32S0Jh7+bFVSqfv7zn08AWhMMPfdNw54AKI2su6nS6S8+nvQwtZBrgA+ZCUm525+6eZTIscD6dC+CA2In+1lN1UM8ga1iJ0fFMp+PZX5DG6vJ+CXwaWAmsINZkup5U9rg0wQeTCTOVk5ltOVyf5D7w9MYFU9hlOWSJCmXct3UNTgGuCn09fVNjDFOyXGIjv9VIdRqtRuBaoqxhxB2tYJK1fr167dNMe6WlhZHAEtNLfLBcCb3m4h/8ADfAK4yEZJy99K0kCuALyR9ERmdVlIj8lgzm7bYyaGxzKdiJ7+lxN0Ezgfez4YT/9rMktRQd5qCwnswmUgfYQvLlacPcfcH94ccedT9QZKkPHIMcH7kfPzv9R0dHX/0jlERzJgxo58ETvR6BrtZQaUqxphkA+Cjjz7qCYBSE7uRB/muaXiaF7XFVAl8wkxIyqUt+BTw13SfnHlbLDtmXcO0nE5kj1jm3XEeS5jEfQR+DnyEwAFAyQxJuXq7v8ckFH1TTqjBp2qDj/uD6iyd/WGU+4MkSXkVQlic4/AeHwPcDHU4JsfhLfZOUcFcn2jcu1s6pSrRBsDVRx999Jq8B2kDoDRyvhIWp3lscF3syHnATSZCUt6EL/EYcFLClzCByHQrqU168YIQ5/KqWOa/Ypk/UuWvwFeIHAlsaYakHFtvg08TWJ1MpC02+OTMvabA/SE3BtwfJEnKq1qt9qM8x9cMY4DzPv43xuj4XxVKCOGGREN/YYwxWEElKrkGwBDCrSnEaQOgNDLW0coPTcOzbJJd1Ah8z0xIyuUe1c0K4NxkLyDjjVZRGyvOphQ7mRLLfJ0yt5CxEvgY8DKzI6VzK7PGBp/Cy3g4mVhrNvjkan+wAbAZquz+IEmSNtv06dOvA67Oa3zNMAZ43bp1byK/43+vmz59+lXeKSrUq1SMqTYAbrl8+fLnWUElet+leALgbSkEaQOgNDIuDd/gPtPwHGpcYBIk5VaJ9wP9aT49c2ScndsfFCkvy6STfWOZLiZxI4ELgZOBXcyMlKTVYTHrTEPRN+6EalyywSdHHgjdrDcNBRfcHyRJ0rBxDHAjX/tizO3435yPiJY29Z5LdQQwWZa92AoqUck1ANZqtduT2BdcW9JIPAXzC5OwER7k98BDJkJSLrfy07kJOC3R8CcwicOsov5RPJ6dYpn3xjJ/JHA18HFgNzMjJc/TvZpiE0/oiwlVx8a7P6jOUvrikvuDJEl5fu2I8cc5j6+wY4AvuOCCScAReY1vYGDA8b8qnFKpdEPC4dsAqCRlWbZzgjE7Alhq3jek/B6RnidhMVXgWjMhKbda+TSwJtHPIscAa8NS6CKLnRwZyyyjhVuBL+J4X6lo7jEFTSBLqsFnrAXLzTOh+0Nz1Nn9QZIkDQvHADdOqVTK9fjfmTNn/sk7REXT2tp6MyR7av5eVlCJSm4SVYzREcBSE/urKTBXktIXvsF9BL6eZvAcHbt81mtmscw2scwHWMWNBJYA04GSmZEKyQafptjYkxrz3GrBcvNM6P7QHHV2f5AkScPJMcCNeKQL4Zgch+fpfyqkyZMnDwA3Jxr+3lZQKYoxJncCYAjBEcBSE1ttCjZ2t+RBkyAp30+i/C/wcIKR78gdvMoCNuGS7eTVscxZwG3A54DdzYpU+M8qG3yaQzoNPoEWy5WbWrg/NEed09kfau4PkiTl/hXTMcB1Nzj+9/DcPm6GYAOgivs6FcKNiYbuCYBKzsqVK1uBHVOLe2BgIIlDrWwAlEZkB+Axk7DRHjUFknL98tfNvcDpiYY/xQo2jziPjjiPXxK4HHgnMNqsSM3yYWWDT5PoT2hN2uCTmwcE94cmqXM6+0Pm/iBJUt5Nnz79uhBCbse9hhBm9Pb2blGknLe2tr6R/I7/vba9vf1q7wwV9nUqxmsTDf15559//jgrqJQ88MADO5LepKq1V1xxhSOAJem5n6qIJkFS7rXwNWB9cnFnNgAW/mO0iyzO45hY5ndElhN5nVmRmpANgM1S53RO+Io2+OSI+0NTPBR6AqAkSRrmx4sYcz0GOMY4s2D5npPj8BZ7R6jg+92ViYYeRo0a5RhgJWVgYOD5CYZ9U1dXVy2FQG0AlCRJeq63qNO4jcjZ6b258pp4KmOsYPHEMq1xHu9gFVcTWQy80qxIzbwp8JBJaIo6r0soWht83B9U1xcWR4RLkqRhfoyMsSfn8RVmDPBFF120NTke/ws4/leFlmXZlcm+CoawnxVUYms2xQbA65PZz1xikiRJG6HElxOMejSPeCJckQye+Pd24Doi3wb8hp8kCKw1Cc3wIZDQiE9PAHR/UL05IlySJA2rFMYA9/X1bVmEXA8MDLwRaM1peH/p6Oi4xjtCRbZ69eprgUdTjD3G+AorqMTsklrAIYQbUonVBkBJkqSNecA7g8uB3ycY+hFWrxhiJ9NZxe+JfBfY3YxIehIbfJriYYSBZGLNKFmw3Kwb9wf3h5w91Lo/SJKUzMd2zscA9/f3zyhIqo/J8Rr4sXeCim7OnDlVIMlGV08AVIJ2STDmG1MJ1AZASZKkjRU5M8Gop1i4xJddmQNjJ30ElgEvNyOS/knNBp8m0ZbQM5MNPvnh/tAc7yltCUXr/iBJUiKq1Wqum7+KMAZ4yZIl25DjL3DnfRS0NIxr/Q+Jxv2ynp4e37GU0pp9YWox12o1RwBLkiQVznp+ADyWWNT7xROZZPESfBGaz/NiJ4uBSwkcZkYkPQsbfJpBSKjBJ1C1YDlRdX9ojgfHpBoA3R8kSUrEzJkzrweuyu1rRwgzent7t0g5x62trW8AWnIa3jUzZsz4s3eCmkGWZVcmGvrYSZMmvcgKKhUhhOQaAAcGBhwBLEmSVLgH07N4kMh5qb27UuMQq5eO2EUWy5xMjT8TOAYIZkXSsyol15yuTdOazodZQuNI3R/k/lBv7g+SJCUk72OAgSMTT/GcHMfm6X9qGrVa7cpUY69Wq6+wgkrBsmXLRgHP///t3XmcXGWV8PHfU9XdSViyEER2EQUVF0QhgCIaTdJLEhElcVeEdCeAjIPbOL4z0u6OzrghkHTCooyjJIBiIF0dokFAIRjADcGFTUjCvocsXVXP+0c3CMiSpZf73Pv7fj6ZQVE895x7z7236qnnJBb2Q9OmTVudSrAuAJQkSdo8P04u4sibLFsiperg1azmCuB7wGgzImmTVN3hqxg3CXf40hYI9oeC1Nn+IEmSBkW9Xs/0IrCUxwD3j/+dmOHan+cVoKKoVqu/S/VdJYTwWiuoRLwESG1k9fUhhJhKsC4AlCRJ2hwPUgHuTyzqwy1ctsWjGRk76ARWAoeaEUmbxQU+BblZJLXAxx2+slMJ+0MxpNMf3CFUkqSkZH0MMNC6fPny7ZICINpKAABUYElEQVR8gGtqeicZHf8bQviD439VJNOnT38M+GuKsccY3QFQSSiVSvskGPb1SeXY00ySJGnThUVsJPCzxMJ+fTyG7a1eRl/QZ7MfTVwNnAxJLe6QlBUNjvgsxkOIO3zJ/iD7gyRJGnpZHwO8cePGqYnmdYY1lzJ13v820dAP7OzsdN2PUrjG9k0wbBcASpIk5dwFicXbQCOHWLYMvvB0cByRlcCrzYakLW8mbDAJhZDOAp/gAp/MqNsfCnIfsD9IkqTBlOnFYCmOAe4f//uWrMZXLpcd/6vCCSGsTDT0sRMmTHi5FVQC15g7AA4yFwBKkiRtrsjPIbHdVOqOAc7UKXQc42IH5wGnAaPMiKStUnbEZyGktcOX56T9QUP7fpLSAkDPSUmSEtPa2vpn4HdZDjG1McANDQ3vIqPjf4HfT548+QbPfBVNvV7/VbKv/uWyG0AoBS4AHGQuAJQkSdpMoYvHCPw8raB5k5XLhtjOG6hxHfAusyFpQNSpm4Qi3ECSWgD4mAXLiJr9oRgvKPYHSZI0yI8bITgGeGDzeVSGw3P3PxXSo48+em2q7ysxxkOtoBLwisTivb+lpWVNSgE3eI5JkiRtkcXAtITiPTB20hA6qVq6YXwRn80cIqf4HD7kHgPuAx4g0EukDjz0xN+LPDhIu9EcABxk+jX4zYVGk1CIOjcRkuq7ygb7QzG4AFCSJA2qarW6qFwufymzr0t9Y4DPTSGXS5YseQEZHv8bY1zoGa8imjlz5sZKpXJ1lq/P5+ACQGXa0qVLd63X6y9MKeYQwh9Sy7NfPEqSJG3Rkx8XE4mQzFfx27KKVwG/tXhDL86gzDi+QeQkszGgHgNuJXIrJW4lchtwB4F7qHMPjdzHCO4N3xqekd2xg5NxAaCGwkbf7QuhxPbEZJ6TXOCTFQ32h2I8bLK9C4QlSdJgmjp16l8qlcrvgP0zGmLr8uXLt5s4ceKjmX9dCuGdZPc7+t/1j3yWCimEcEWM8S0Jhr7fRRddNG7atGkPWEVlUb1ePyDBmK9NLWY/BJQkSdqSF8G5rIodXAe8Lp2gORgXAA65eDzbUeX/gOlmY4vdBvwJ+AOB66lzA2VuC3O5O9vFpyGhL+OV9E3JHb4Koc44F/hoC9gfinEfGJdQtPYHSZJSfeQIYVGMMasLAB8fA3xuAnmckeUae6aryGKMv0q1RZfL5QlAj1VURu8vr40xphbzdanl2QWAkiRJW24xaS0APASYZ9mGTpzF7lRZDLzWbGySKvBH4ErgWur8kVH8KZzCw2m+1fq+pSFS9lwrhJQW+NSHZ+dVPQN3CC0K+4MkSRp0jgHeev3jf9+c4RDP90xXkdXr9V+XSqUaUE4w/ENxAaCye48+IMGwk9sBsOSpJkmStIUCF6X1hM3BFm0I093OaymxAhf/PZe7gZ8R+SwlJtLAuNDFAaGL40MXC8ICrkp28V8fd12S55oGUjoLfEo8Yrky87xqf7A/ZO2ctD9IkpSoqVOn/oVsTxdpXb58+XaZfhTK+Pjf5ubmGz3TVWRtbW0PA79P8vU/hDdaQWXY/oldT+tGjBjx59SS7AJASZKkLTWPa4A1CUX8sng0Yy3c4IuzOITAL4BdzcZTVIHLgH8j8MrQxQtDF0eE+Xw1zOXScBqP5upo3QFQQ/dm77mW9/sKBEjoHl7nAatmf9CQ9ocxyQS80f4gSVLKQgjnZTi8x8cAZ9nMDMe20DNcAiDVMcCHLVy4cJTlU9YsWbJkNPCSxML+3cSJE6up5doFgJIkSVsoQCRySVLPfk1MsHKDK3YwkRKXkNJOLIPrfuD/CLyPMjuFLt4cuvh6mMefCnDs7rqkoVGnySTk3IlsD8ks5NoYunjMotkfNESOZgzpjKdaH85mvUWTJCldtVrtx1mOr38McCYtWbLkBSGEw7MaX6lUWuQZLkGMMdUFgCNHjx7tLoDKnHK5/Fr6fryYkmtTzLULACVJkrbO0sTidQzwYH440MFhwEXAdgVPxWPA/xKZzAPsFLp4f5jHj8LpBdvxJbrrkoZInW1NQs5tSGoHX3f3ypKy/SH3RtofJEnS0Glra7sJxwBvkVKp9C6y+8Ou306ZMuWvnuESVKvVy1ONPYQwxQoqa+r1+mtTiznGeF2KuXYBoCRJ0lY9BbIMiAnFe4hFG6TUtvNa4GfANoVNQuAaArMZwS6hiw+G+SwLi6gV+LRwB0ANjTLbm4TcP2/skFC0LvDJ1rljf8i7uv1BkiQNuSzvFJfZMcBZ3p0w4zWVhtT06dNXAUkuiI0xTraCypoQwhsSDPs3KebaBYCSJElb8+C6gLuA36cTMAfH9Lbazv6L9XG8jMAyijn2dzWBLwAvDfM4MMyjK5zCw54VAO4AqCFSZ7RJyLlyQjt8BR60YPYHDWmNxyYUrf1BkqQ8PH7U6+dmOb4sLrTL+vhfYKFntvQUPYnGvf/FF1+8s+VTxqQ2mnrtiBEjrk8x0S4AlCRJ2lqBSxKKdjyzealFGzhxDjtRYwkwvmCH/kciH+EBXhzmcXLo4ibPhqefHC4A1JC92bvAJ+9qCS0wr3O/BcvUc6r9If81HpdQrPYHSZJyIOtjgEMIbVkbAxxCmEF2fyh6bUtLy988s6WnXLOpLgAM5XL5rVZQWbFs2bK9gd1TijnGuGLixInVFPPtAkBJkqStfhpMagEgwMEWbYBKfxKjqPMzYO/CHHTgF0Ta6OI1YT5nh0Vs9Ex41ly5AFBDdR9yxGf+pbTA5y7LlSn2h/w/b6S0QNj+IElSfmR2ZGyMcVTWxgD3LwDM5uNkCI7/lf7ZcmBDorE7BliZUavV3pRazCGEq1LNtwsAJUmStta2XA6sTybeyCEWbYCs5XSKsaCyDpxLnQPDPN4W5tMdIHoCPK9GU5Az1Yye9+7wVQQvTCjWYi7wKWX2vmh/sD9k6X7lAkBJkvIj0yNjszQGeNmyZS8EMrsAolaruQBQeprm5ua1wGUpxh5CmBxjDFZRGbkfH5Zg2Fenmm8XAEqSJG3tC9W3WAdckVDI7gA4EC8uHZwAfLgAh7qMEgeGLt4TFnCNld8sLgDMmzr1jMa1ncXJvT3TuUFyZzEfDDLaH4L9wf6QqfPxTsslSVI+9I+MvS7DIU698MILM7Ebdm9v77uAckbzdE3/SGdJT399CWFpinHHGHdbunTp66ygMiK5HQAbGhrcAVCSJKngfp5QrPvHkxhlybbiJbqD1wHfzPlhrqTEYaGLyWFupj/QzS5HAOdPU2YX+Iy1ODlXYveEYr27kDXK6gLhaH/I/4NpQv2BgvYHSZLy+hgSY5Z3jhs5cuTItky8smd4/C8ZHuUsZUAl4f58pOXTcFuyZMkLgH0Tu3ZunjRpUrLTC1wAKEmSNCBPhUltB9/IOvwF2JaW+mhGAj8AmnJ6iPcBc9iVg8NcfmXFt0KdESYhZ3ozO+LzBRYn988ZeyQTa62gIz7LGe0P0f6QeyGh/uAIYEmS8vUYEkKmF49lYQzwxRdfvDMZ3v2oXq+f55ksPbPm5uY/ArcnGv47raAy8JxwGBASi3lFyjl3AaAkSdJAeJCVwGPJxFvnIIu2hUbwReCVOT26/6WRl4Uu5oXOjO5klNTbIjuYhJzJ7ohPF/jkXzoLfMoFHfFZtz/I/rAJ14kjgCVJyhHHAG/C61G5nNnxvzHGlY7/lZ5XT6Jxv6Knp+fllk/DKYQwOcGYL0055y4AlCRJGoiHwkVsBNL5ZUhkglXbgrR1cBiRj+fw0NYQOSJ08cFwKvdZ6QHjAsDcNXtqGe3pO1mcHN97jme7pPpJb7K/jt86pYz2B+wPue4PJzIaEhrzvK6g/UGSpDw/j2R8DHBTU9PU4Qwgy+N/s76Do5SR6yTVBYDEGN0FUMOtNbWAq9XqpSkn3AWAkiRJAyedMcDBBYCb/cLctwDj+7l7ho5cSI1Xhfn8zCoPuHGmIGdKrM9oZO7wlWc1XpJQtA+EM3nE/mB/0BDpTao/3BvOYa1FkyQpX7K+iGw4F+BdfPHFO8cYD8toamJDQ4Pjf6Xne9UvlS4BqinGHmM80gpquFQqlVcCeyUW9uqpU6f+Jeme5aknSZI0QAKXJxTt3vEExlu0zVDl68DeOTqijcBJzOfIcAb3W+CBFU9kBLCtmciZdazLaGTbx6MZaYFya5+EYr2tsFXamNn+MKb/nqQ8qiXUH0KB+4MkSTnWPwb42gyH2DZcY4DL5fJRZHT8L7By0qRJN3sGS89t8uTJD0FS3/v84xUshNdfcskle1pFDZOpqQUcY1yeetJdAChJkjRQHuMqoDeV9z+qHGTRNvHBfxavB2bn6JBWA4eHLr4dIFrhQbDB8b+59BLWkdVrpskxn7lVT2oB4N8LW6c9M7sAENa5C2BuBfuDJEnKwCNJtncBHM4xwJkd/5vx0c1S1nrcT1INvVaruQughuu6aUsw5ktTz7sLACVJkgbq4fAc1hK4JpmA644B3hQRAiVOydGz80pKTAhdrLC6g2pHU5DDPt9JHdiQ0Z7uAp/cnngJLfCJxd3hK3RSpW933expsD/kmP1BkiQNu1qt5hjgp6lUKrsAmR3/WyqVHP8rbaJSqXQh6f6IfqYV1FC75JJLxsQY35Bg6Jcm3688/SRJkgZQ5LKEngTdAXBTtPM+4NCcHM0FbMvhYS6rLOyg94IXm4TcyuYuX2VeaGlyyx2+7A9be0+yP9gfssAFgJIk5VRbW9tNOAb4KUIIR5Hd7+F/09zcfItnrrRpJk+e/PcY4zWJhv+G7u7ul1lFDaVqtToFaEws7DtaWlr+lnruXQAoDYaRlE3Cpr4F0WQSJOXMlclEGt0B8HlT1EEjgS/k5HAW8AAzw7cyPKIwX884+5iE3Ho0oz19D0uTW/smFOtN9ocMqtsf7A+ZeDa6yXJJkpRrCzMc25CPAY4xHpXZx7Jsj2yWMqlUKv001dhDCO+3ghric641wbCX5aJXefpJg2Aj25mETX0LYrRJkJQrVa5OKNqd4hz2smjPeZ9qB/bOwZF8gy46wiJqFnXIzp2XmoTcejCjcbnAJ4+tZBYvBHZKJuAyf7U/ZFCwP+SyP3SwC7BjQs9Gf7VqkiTlV71ez/RI2aEcA5z18b9Zr5VkjxtwH4wxBquoobBy5cpGYHpqcccYl+Qh/y4AlAZDg+N1NsPOpkBSnoQzWQ3cns6bq2OAn/WB/0RGEPh/6Z+U/Hfo4tMBolUd0ry7ADC/tX0wm03LBT65VOY1CUVbZ1TBd/iKLgDUkJ5vKfWHGg9ws0WTJCm/+scAZ3lEZtuSJUuGZEOKjI//vbq1tfVWz1hp87S2tv4ZuC7R8Pfq7u4+3CpqKNxzzz2TSenHin16GxoaluYh/y4AlAZDnZeZhE1mriTlUTq7AAbHAD+r9XwI2DXpY4icEubxKYs5LBwBnFeRBzLaz13gk8/zLaUFPrcXfsx8KaP9wQXC+RSS6g+3hkVstGiSJOVelkfLjgwhtA3J43eMM6yRlEs/TjXwUqn0IcunoRBCeE+CYV82efLkh/KQfxcASoPjYFOwCS9Bc9gJeLGZkJRD6SwAjC4AfMa0dFIi8MnED+Mc5vMxqzkM58/RjMRxrDkusCOANaTnW0oLfBzvaX/Q0LI/SJKkTAkhLCTDEyiGYgxw//jfN2b1jaVWqzn+V9ryHvIj0p2yc9TixYu3sYoaTMuXLx8JvD3Ba/vivNTABYDS4HhrhGAankeNt2KeJOVRKaEFgPC6OIOyRXuaVUwD9k02/silPMAsx/4OkwZe67tWrnv8AxmNbHffQXIouMAnsftvVvvDHvaHXHpNQteG/UGSpAJobm6+Bbg2wyEO+hjg/t3/MvmZUAhhxdSpU2/zTJW2uMfdHmP8daLhj25sbHyHVdRg2rBhw1RgTGpxV6tVFwBKek4vop1DTcPzvW3wbpMgKZdKrARqiUS7HePYz6L90z1qVsLR30gD73TM2rD2gENMQo5F7s5oZCOZwwssUI5OtRMZAbwioXvnDfb/zPaHUXyEHb2qctQf+nYbfrn9QZIkZdDCDMc26GOAQwhHZfXg6/W643+lrXdOwrEfY/k0mGKMKY7//evUqVP/kpcauABQGryrq90kPMcN4Bh2BdrMhKQ8CqfxKPCndAJ2DPBT7lEd7AK0Jhr+WiJHhdMzuwNRURxsCvLcJLgzw7HtaYFyZAOvBUYk9DzxB/tDhvtD2f6QKyM4AGhKKGL7gyRJBdHQ0JDpEbODOQZ46dKlu5Lh8b9Zr42UxGt/jD8C1iYa/luXLl26j1XUYLjwwgu3L5VKUxMM/eI81cEFgNKgPQHw/ngsLzIRz/YWyKdI68NqSdrc+8DVCcXqAsCn+gDQkGTkgePDfK63hMPOHQDzrJThBT4p7QalTZHWYuKyC3wyvQAw2B9ydq4dnFS0G/mjRZMkqRgmTZp0c4xxZWYfi0NoXb58+XaD8c+u1WpHkd3v3q+aPHny3z1Dpa3T1tb2MHBuouGHWq3WYRU1GJqamo6IMY5K7qIIIVe747oAUBo8jTTwddPwz2I7+wLHmQlJuVZKaAEgHGTBnuJdad5g+UGYxw8s3zCX4Xh2BvYyE3kucqZ3AHyFBcqVlBb4rA6ncp/Pf5leAGh/sD8Ml9vD2TxoySRJKo4sf5keYxy1fv36aYP0j5+Z4bIs9MyUBqyPLEi4P39k+fLlI62iBsFHEoz59ilTplyZpyK4AFAa1CcAZsbZTDcRT0pJJyUCc0lplJUkbZkVCcX66ngSoywZxFnsDknuiHgfgU9YwQyouvtfAazJcGz7WZ5cSWeBj+N/H8/DmgzHZn+wPwzXufd7yyVJUsEei/sWAMYMxzfgY4AXL168Wwjh0IweciyXyxd4ZkoDo7W19Urgd4mGP379+vXvsYoaSMuWLds7hPCWBJ9XfhxCiHmqhQsApUF/rOas2MGeJqLfaj4HTDQRknJvF64H1iYSbQPreJ1FA0ocAYQEnzc+Hbq41wJmwttMQc7tyj1ANaPRucNXXl4jP8ILgL0TCtkFgAB17gZqGX1WsD/kpT/MYSfgxfYHSZKUVc3NzbfEGK/JcIhtS5YsGT2Q/8DGxsYZZPR79xjjrx3/Kw24s1INPITwiRhjsIQaKL29ve2kufbs3LzVwgWA0uAbD3THY9mh6ImI7XwQ+JynhKQiCJ1UgWuSCbjuGOC+wiW4eCtyNfPT/cAhh6aZgkL099UZDe8lcQZNVikHGnkjaS1I/51Fg9BFL9ndJdT+kBeRwxKL2P4gSVIRn40zPAYYGBlCaBvQR7QYj8pwLc7zjJQG3DnA+kRjf1WlUpliCTUQFi5c2BRCODrB0P/W3Nx8Td7q4QJAaWjsR5ll8Xh2LmoCYjtHEziTFHdVkqQtl84Y4Jjk2NuBTUEnJSKHJ/hE//mQ4bEqBXveeSWwl5kohFszGlcDY9nH8uShofDWxOJdadEy3x8a2YGXWh77g/1BkiQNhSKNAV6yZMnuWR7/W6/XXQAoDbCWlpb7gWRHa4cQPmEVNRBGjx79HkhyDcy5eayHCwCloXMAVX4d24u1w1LspCF28NX+xX8NngaSCiUmtAAwuACQNbyavp17U7IyzGOJF1tm3q7c/a84bsvweeiYzzwISS3weZhd+YtFe6J22e0PdftDTqS0Y/X9dHGzJZMkqXiam5tvgez+ECCE0Lp8+fLtBuQ1vFR6Fxke/9vW1naHZ6Q0KNfX/ITDn9zT03OwVdQAOCnFoGu1mgsAJW21FxO4IrbzuXg0I3P/4NPOa1nD5cBncOc/SUXUyNUJRbt3PCG5xW8DLb0X3sBXvdAyZaopKIiY4QU+kVdaoMRPr76d4/dLKOTrQid1K5dAf8D+kPzpdQy7Ai9P6Hq4xp2qJUkq8LNLjIsyHNuo9evXD9QPOWdmuAwLPROlwdHS0vJL4K8JH8LnrKK2Rnd399uA1yYY+rVTp079Qx5r4gJAaeg1Efg8TfwpttMeT2RE7l7qjuNlcTZnEVhJ5BBLLqmowmncDqxOJVyqxdql9p/UOSCxiO8istgrLSPPP8eyA5FDzURRGnymF/j4/J26GhNJ6wdUjvdMpT8E+0PyGhMb/1uyP0iSVGSlUuk8cj4GeMmSJbtDZj8Pqler1fM9E6VB6yExxjg31fhjjG3d3d0HWUlthU8neu6fkdtnL89Jadi8mEAXG1gdO5gbZzM9djAmySYJIbbzytjBv8QOLqfGDUSOBsqWWZIS2gWwXvAxwCGxBYCBc0IXvV5iGVFmBtBgIgrjpgzHdmic4XN40mJiC3yiC3wS6g9viJ1+Fmh/GFL2B0mSCqwIY4BLpdJRZPcHXL+ePn36Ks9EafA0NDScATySavwhhM9bRW2J7u7uQ0MIUxI859eNHDny/3Lbkzw1pWG3AzCbyGyA2MHtwM3Ao8BjGY99HDAeeBmwjaWUpGe0AnhHEpGWirsDYOz7oO7Vab2p8H0vr0z5sCkokCp/zvDb9BjG8xrgOguV7P2oLbGgV1i5J6nx5wwvsRvDKl4D/NZCJdgfOimxmtbEnlftD5IkFf0ZJsZFIYSDMhrb42OAf7wV/5jMjv8NITj+VxpkkydPfqhSqZwJfCzRQ2itVCqTWlpalllNbeY95uREQz9/4sSJD+a1Li4AlLJnj/4/kqR8SOdLr8jBha1SBzuT1mL2W8Jc/ujllZFLp519cexqoYQzWR07eBgYnckA67wRFwCmqZ0DgV0TiviOsIBbLNyTLGAVHTwKbJfJ+AJvxAWAabqDCZTYOaGIbwpzcccZSZK0CPgvMrpLXv8Y4C1aANjT07NHjDGrnwfVN27ceIGnnzT4GhoavlutVj9KupPxvhZjPCiEEK2mNkV3d/ehQHOKsdfr9TPyXBvHfkiSJA2mKiuBWiLRviDOYa9C1iny4sQiXuLFlSGBj5DdcS8aPH/J8Dn5JsuTbD+Znli8v7RoT08JMdP9AftDskqJ9Qe4zKJJkqTW1tZbgd9kOMS2JUuWbNGP++r1+gyy+3nQFY7/lYbGpEmTbg4h/CzhQ3h9T0/Pe62kNlUI4espxh1jvLmlpSXXn2W6AFCSJGkwH4TP5BHghmQCrhd2DHBqCwC7vboy8tI4gzLwQTNRSDdm98TkMMuTrGlpNUEut2SJ9QfsD/aHIesPV1gySZIEEEJYlOHwRoYQpm7hcR2V4Zyf55knDan/Tjz+ry5evHgby6jn093dfSTpfra0IO87XboAUJIkabDFhMYAByYUskYhqXFqkY38ygsrI3ZgMrCbiSikLC/w2TV28BJLlNjjwvHsAbw2qaDr7vCVYH/YLR7H3pYosf5wLC8CXmN/kCRJiTqXvp2yM6lUKs3Y3P9OT0/PHkBmx/+GEM73tJOGTnNz869DCCnvLLZnY2PjZ62knsvKlSsbQwhfSzT8DY2NjWfmvUYuAJQkSRr8J66rk4k1FnQBIOyYUKy3hrN50AsrI+ocaxIKKvKHTMcXONwiJabKEaQ1TvweFmR6odtw+kPGzzX7Q3rvE+9ILOLV4Qz+ZuEkSRJAc3Pz7WR7DHDL8uXLt9uc/0LWx/9OmTJltWeeNLRCCF9J/BA+uXTp0n2spJ7NPffccyKwb6LhnzNp0qS78l4jFwBKkiQNvhUJxfq6/pGmBXs7Z3xC0V7nJZUNcQ67EZL7Ql4Dpc7vsn2C8naLlJz3JnbvXB4yvIuH/eE5lOwPCT6rJtcfLJokSXrK40GGxwDHGEetX79++mY9Um/BroFDaJFnnDT0pkyZsjTGuDLhQxhRr9e/ayX1TJYsWbJ7COHziYYfgW8XoU4uAJQkSRpsu3A9sDaRaLdjHPsVrkaRHRKK9vdeVJk5bzqABhNRUGfwd8j0bpxTYgfbWKhE2skc9gIOTSroOt1W7lks4FbgoQzfv5rtDwn1h76R7qnt0l2xcpIk6cmq1eoicjIG+JJLLtkzxnhwZt/UwPG/0vD5auLxt3R3d3/AMuoZ7pPfAbZLNPylLS0t1xeiTp6qkiRJgyt0UgWuSSfgAo4BDoxIJtbIbV5VGShDB41EZpmJAvf2vi8usrzL1zZEmq1UImq8l7TG/0YCPRbuOfpDyPSC/W2AKVYqmRMqtf5QJ7DUwkmSpCebOnXqbcDVGQ6x5cILL9x+U/6D1Wr1qKw+n4UQLm9paVnjGScNjxUrVvyUxH/AH0L4dk9Pz05WU4/r6emZDrwz4UP4dlFq5QJASZKkIXr3SybSyEGFq06kKaEn+Nu9nDJxzrwL2NVEFF62x3wGjrREiUhtvCdcF7rwS6Xnvk/8LuMRvsMiJXMuvSexeFeGudxt4SQ9w/OOu6dLyvQY4Kampmmb1M5CeHdWj6Nery/0NJOGT2dnZz3G2Jn4YYyPMZ5iNQWwfPnysTHG0xI+hOubm5sL8yNmFwBKkiQNhZDpX7g+XfF2AExpAWBklRdUJq7p40yCCPw24xFOjR00WqiMt/U5vAp4dWJhO94z/f4wLXa6ECPz/WE2+wOvTCrokv1B0rMaaQqkYqvVaueR+Bjgiy+++EWQ2R9P1+r1+gWeadLwamlp+SlwbeKHMbOnp+fdVlPr16//HrB7wofwPyGEWJR6uQBQkiRpKJQT2gEQXhVPYpRFy6hG7jEJwyt28GrgcDMhsr+76w4Ez9XMq/GRBKPutnDPI2S+P4znDvtDAlLsDy4AlPQsL1IuAJSKLg9jgMvlcmbH/wKXT5069U7PNGmYPw4IIYYQTk7+0S3G03t6evawosXV3d19ZAjh/Qkfwt9GjBhxTpFq5gJASZKkoXjpO43bgdWJhNvIOl5XrAKxLplYexOKNb/ny8dNggDYhRuBhzMdY3QMcKbLcyIjCHwosbDv4gGutHrP4z5uAB7J+P3sHRYqw/3haEYS+WBiYa9hl6R++CRpKJVcACgJSH8M8IwMx7/I00vKhubm5osg+XejcTHG73d2drqmqIB6enr2CCHMT/wwvjhx4sRqsV65JEmSNFTSGQNcz+woi8HyWDKR7sp6L6XhE49jbyIfMBMCCJ3Ugd9kPMyj4oyExpwXzUbeCeyYWNQXhEXULN7z9Ie+HK3MdpDMcEx4ho3gKGCHxKI+v//eKEnP8DLlAkBJaY8B7h//OyGrqW1sbDzfM0zK0KNPjJ/JwWFMPPTQQz9tNYtl+fLlDTHG/wPGJ3wYf3744Yd/WLTauQBQkiRp6KTzi6+Y2Q+zBksqu+pt8EvVYVbls0CDiVBCvf2F7MDbLVNG1elIMGp3lchPf9iZwHTLlNnn8fbkYg72B0nPaYwpkDR16tTbQghZfk5+1jHADQ0NM8ju+N/LJk2adJdnmJQdra2tlwIXJf9qGuMXu7u732JFi2PDhg2fBw5L/DC+MHPmzML9gNkFgJIkSUMnnQWAoWALANMZAezz+zCKc9grwVGdGvz+kf3dXdNcZJb/ntLOvgTenFjYd/EAl1m9TS1yErs/2x+yeOp08HLgTYmFvYZduMLqSXoOu5oCSQD1ej3JMcAxxpkZTutCzywpe0IInwJSH0HaEEL48eLFi3ezovnX3d39diD13Sv/dNVVV/24iPXzC0RJkqShUmUlJDMyb+94QtLbe2+emMwCwEZH9Q2jOv8J5l9P08AVkPGdOQNvix28xGJlTInjye7uEc/G8b+b9+yX/f4QmRxn8WKLlbm6pNgfHP8r6fmMi0c7BlgSNDQ0JDcGuLu7ey/gwIyGXGtoaPiJZ5aUPc3NzTcCZ+fgUF7Y2Nj4fytXrvSz8Ry75JJLXhFCOIfE15HFGDs7OzsL+fmECwAlSZKGSDiTR4AbUgmXKgcVpjjpLAAE2MaraRhOkdkcCBxtJvRPzfJU7gN+l8C7/yyrlaGecgLjiQnWpOSuEpvVH87iHuAPma9qyf6Qqf7QwY4Ejkku8Lr9QcqY3kxG1cAulkbS5MmT/57gGODMjv+NMf7S8b9Shl+6S6WTgUdzcCiH33vvvXOtaD4tX758bK1W+ykwOvFDuaKlpeW8wvYbT2VJkqQhFBMaA1wv1Bjgx5KJtIFRXkhDfdkSiHzX9yc9q8DPE4jyaHcQzZBePgpsm1jUt7Cz43+34CaSQn/4iP0hU1LsDzexwPG/UsaeT9dn9H3WMcCSgCTHADv+V9IWmTJlyuoY41dycjjHVCqVf7Oq+bJw4cKm9evXnwvsm/rjRalUOimEEItaS7/AkiRJGtqnr6sTirU4OwAGHkkm1iov8EIaYh18CDjUROhZ1flFAlHuTOTtFmv4xQ62oW+BT2KBc7bjPbfoGSOF/rALkWkWKwOX2QfZNsn+AGeFDI/xk4rZUNiQ0bj2tTiSIK0xwD09PS8OIbw+o6HWSqWS43+lrD+axfhN4G85OZyvVCqVmVY1HxYuXFgeM2bMj0MIU3JwOGdMmTJlZZHr6QJASZKkoZXODoCxUDsA3pVQXV7kZTSE6T6ascDXzISeUyOXk9Uxa08WOMFiZcIsYMfEYq5T5/uWbgtUucz+oE02klnA+MSirtHADyyelLm+ns0dAOu8yuJIgr4xwMBVGQ7xiTHA9Xr9KDI6/he4tLm5+W7PKCnb2traNoQQTsrJ4ZSAc7q7u5utbNpijGH06NFdMcYjc3A4D4YQ/qPoNXUBoCRJ0lDaheuBtYlEu1Ocw16FqEudO5OJNRSkJlkxgu8BO5sIPedleRqPErg8gVAnxlkcYsWGTzyREcAn0gucn4czuM0KbkF/OJNHiPwqgVDfFucU6scf2bvMjmYkgY+nd5KzLJzG7VZQytw77vqMRvZqiyPpiceIEFIZAzwzw3Eu8kyS0tDc3HxRCGFJTg6nKYRwQaVSeZOVTVOMMfT09JwGHJOTZ4ovuCDeBYCSJElD+xDaSRW4JpmA6wUZA1xOagGgOwAO1UtwOzOJvN9MaBP9NJFPAf7dUg2jDfwLsGdycZc4y+IVoD/U7Q/DqinR/oD9QcrovTubI4CDCwAlPUXWxwDP7unpOSbD43+rMcYLPI2kdJTL5RNJZ4OI57MNsLinp+dgK5uWzs7OUk9PzwJgTk4O6Ybx48d/z8q6AFCSJGk4pDMGOBRkJ5jIqoRifY2X0BCk+Rh2JXCamdBmXJsXkuEvLp5kepxlHxmWU+QExgOfTTD0u2jCL5W2RpkLE4n0iDjH0YzD0h862BGSXIB5J/fzEysoZVB2dwDcOR7DrhZIEkBzc/PtZHgMcIzxzTHGM8jw+N+2trZ7PJOkdEyaNOnmGOPncnRIY2KMl/T09BxuddOwfPnyhkMOOeRscrLzH1CPMXYceOCBvVbXBYCSJElDL3B1MrHGYiwADF08BNyXSLgHxex+8JgLsZMSjZwJjDcb2ow+8nfguiTuQmW+bMWGQZX/BMYmGPnp4ZSM7iKUSn+Yy63Ab5PoD3X7wzBJsz9ETg+L2Gj5pEx29PWZja2Rt1ogSU+0qwyPAU7AQlMgpWfFihXfBq7M0SFtH2Ps7u7ubra62bZ8+fLtNmzY8FPggzk6rFNaW1uvsLp9XAAoSZI01MoJ7QAIr4szKBeiLpGbEol0HO3s44U0iNZwMhE/sNCW+Gki/W5a7GCi5RrClB/LS4kcl2DoG6gz1woWqD/A22M7b7ZcQ9gfZrMPJNkf1lO2P0iZvkaz+yw6yfJIepJMjwHOsGpvb687MUsJ6uzsrMcY5wB52rFsmxDChd3d3e+1wtm0dOnSXTds2HAZMDVHh3VLCOH/Wd1/cAGgJEnSEAuncTuwOpFwt2Mc+xWjMNycUKyHeiUNjjibI4j8p5nQFikn9Ov7wDdip58JDOG58U2gKcF744/CAu6ygAPi3KT6g7sND6VvAo0Jxv2jMJe7LZ+UWQ9lOLa3WR5Jj8v6GOAMWz59+vR7TYOUptbW1t/HGL+Ss8MaEUL4YXd3939Y4WypVCqvq9frVwIH5OiwYoyxvbm5ea0V/gc/7JckSRoe6YwBDsUYAwzcmM6rDdO8hAYhrR28nMgPcNGDtrRdns6fIZFdXiOvZzXHWLUhSHU77wemJxr+t63gAPWHLm4EfpNIuAfRzkes2hD0h9l8INnnusB3rKCUaVleFLJ7bOeVlkjSkzjK1pxJhTNy5MgvQVLTojbpTTGE8MVKpXLWkiVLRljl4dfd3X008Ctgz5wd2hmtra0/t8JP5QJASZKk4ZHOi13koEJUJPCHhGJtiUcz0stoAE/zY9kB+Akw2mxoK3vmDxKK9utxFi+0aIN4OhzPzskukolcEubxO6s4oPfvcxKK9RtxDjtZtEHuD9H+IGnQ+vg9GY/P8XCS/tESQjgfxwBvjmpvb+9PTYOUtokTJ1ZLpdIHgTzuYHZ0qVS67JJLLtnTSg+PJUuWjKhUKqeFEM6C3H2XdEe5XP6kVf5nLgCUJEkaHin9sqsYOwBW+X1C0W7HCCZ7GQ2MeBKjKHMh8HKzoa1W58fAhkSiHUfgWxZtUO8t3wPGJxl7iS9ZwAG2kR8DvYlEuwORb1q0Qe0PpwI72B8kDdIz6T0Zj/ADsdPvpyT16R8DfKWZ2GQ/d/yvlA9Tpkz5awjh4zk9vAm1Wu3a7u7uZis9tJYsWbJfqVS6Ejguj286IYQPT548+SEr/c98wZIkSRoOVVYC9USifVU8iVG5r8ke3Exav7b7gBfS1osdNLKW84HDzIYGQjiD+wksSSdg3htnc4SVG4T+0s57gHclGv7yMI/LrOIAX25ncQ/Qnc5JzPvj7GTHV2c7tbN5L/BO+4OkQVPmzoxH+CJW8SYLJelJFpmCTXyWjNFcSTnS3NzcBVyY08MbH0JYUqlUvrZw4cImqz24Ojs7S93d3R8vlUrXAgfk9DC/3Nzc/Aur/cxcAChJkjQMwpk8AvwpkXAbeTS3Lwv/qEkndWBlMgFHjoxz2M2raWtSSCBwFtBqNjTATk/sYlhgPxnglM5mH0Ji58GTlfiCVRysB47k+sOZ8Rh2tXADmNJ29iUm3B/gi1ZRSuIt/u8JRHmMhZL0uHq9fh6OAd4UvY2NjT81DVK+VKvVjwC35PTwSsC/jR49+uqenp5XWe3BUalUXnnIIYf8MoTwP8CInB7mpSNGjPAzy+e52CRJkjQ8rk4m0lCQMcBpjRtppM5sL6MtEzsp0c58Iu83Gxpw81gG3JhQxDsS+YFj2AaovxzPdkQuAMYmegiXhblcaiUHrT/0AH9Nqj808H37wwD2h8AFwJgkDyBweehiuZWUErhcT+Fh4IGM95T3xjnsZbUkAbS1td2BY4A3xS8mTZp0n2mQ8mXatGkPhBBmAOtzfJj7xxh/093d/e8rV65stOoDY+HChaMqlcqXgGvJ95Sj2+r1+syJEydWrfqz88M7SZKk4RJYkUyssSALAGNyHzTOjseznRfTZpa5kwZWcw6BY82GBqe9E4FTE+t/b2UV/2H1tjaNBKosANL9RXOJk63kIPeHmFh/gEms4bNWbwD6Q40zgFcmfBD2Byktt2U8vkbqfNoySXqShabged4nQjBHUk41NzdfE2P815wf5sgQwlfuvffe67q7uw+z6lvxeh5jqFQqM7fffvs/Av8PyPOI5ceAd7a1td1j5Z+bCwAlSZKGTzoLAAMHFaIigV8D9YQi3okqn/BS2owX4xk0sYaFwPvMhgZVle8DDyfWAztjO0davK3QwceBdyd8H7zI3f+GJM9nA4+mdQPl83E2R1i8rdDOJ4jMTPgILnb3Pyk5NycQ4zGOmpf0uHq9fj5pfS431HpjjD81DVJ+tba2zgPOKcChvjKEcFmlUjmjUqnsYuU3T3d392E9PT1XAueGEPbO+eHWYozvbWlpudbKPz8XAEqSJA2XXbgeWJtItC+JJzA+7yUJXdwL/DaxsD8Zj2dnL6jnF09kNDvwM6ILnDQE/eRMHgHOSC1sAj+IHbzaCm5Bj+lbPPm1hA+hSs1deIboeeMh4MzEwi4ROSfOSXh3y+HsD7N5J4GvJt0fgv1BStCNCcQ4gga+ZKkkQd8Y4BijY4Cf3c9bWlruNw1Svj388MOzgasLcKgBOAb4S09Pz8k9PT3bWv3ntnTp0jdWKpUlIYTLgYOLcMwhhONbW1t/ZvU3jQsAJUmShuvBtZMqcE0yL2PVguwCCMsSi3c7ev3C5PnEWbyYDfyKSLPZ0BC+cf8PsCG5ngIXxePZwwJuRo+ZTQuBHwMN6T6Y0BUWcIPVHCIN/DewMbGot6fORXEWu1vAzegP7bQS+VHS/SGyIMzjT1ZTSu7ensp9/ejYzpstmCSAEMIis/CsHP8rFcDMmTPXAe8A7ijIIW8XY+yMMf6lUql8dOHChaM8C56qu7v7bd3d3T+v1+tXAK1FOe4Y42ebm5u7PAM2nQsAJUmShlc6Y4DrTCjGWwWXJBdz4Jg4mxYvp2cpaQeHUWIFuGuRhvjSnMsq0tvlC2BPqiyNHexoFTehx7TzZiIXAE0JH8bDBD5vNYewP5zG7QS+n2DoL6JEj/1hE/vDHN5C4PzE+8MjRDqtppSgWjILAAOBufFERlg0SfQtcnMM8D/rBS40DVIxtLS0rKnX628nnQlSA2FX4JTRo0ff1t3d3bl8+fKxRT4Hli9fPrJSqXyoUqn8LoSwLITw1oKl4OTW1tav2g02jwsAJUmShlNIaCv3UkF2AHyQy4CHkjuTImfEY9nBi+qpYgez6NvV8QVmQ8PUO79O3wf1qXk50B1PZLRFfM4eczCBxUDqv07+UpjL3VZ0yPvD14BqgpHvByyxPzxPf5jFIdT5WfL9IfDlsIC7rKiU5H3mhoTuMy9nA5+zaJJaWlrWOAb4GS1z/K9ULG1tbdfFGD9C8RZFvyCEcPKGDRtuqVQq36tUKvsX5nOEGENPT88bKpXK9zZs2HAn8H3gNQU8/U9uaWn5gl1gS14BJUmSNHzKCe0AGIuxA2BYxEYCFyUY+q6U6YoQvLAgnsjo2M7/AfPBnSQ0jD1lLrcC5yQa/oFsYJmLi5+lz/TtvHoJsH3ih/IH4NtWdBj6w+ncTOT/Eg3/INZzif3hWfpDO62UWJqD/vBHIt+0olKi95kuHgOuTyjkz8TZTLdykhwD/AzPlzE6/lcqoNbW1kXAJwp6+GOBE4DfViqVFZVKZU5PT89OOezvYcmSJQdUKpWv9fT03Bxj/FX/cY8pYM3rwEdd/LflXAAoSZI0jMJp3A6sTiTcneIc9irIa8ZPEo38XXRwctGvqziL17OBawi81y6jjLx5fw54LNHoD6LMFfEYdrWQT+ozHcwi8jPSX9xTJzIndCW5S2U+lDkZWJ/mgywTKHO5/eEZ+kPgwhz0h0iJE+0PUvJX8sqknpojP4yzeIWFk4qtt7f3PBwD/GQba7Wa43+lgmppafk28PWCp2ECcHqMcXWlUvllpVL5WHd3916pHszixYt37O7ufk+lUjmrp6dnValUuhb4NyjI92/PbH0I4X0tLS2netVvzQuVJEmShls6Y4DrBRkDHOgGHk00+s/F2cVc+BY7aIwdfJYSvwZeamtRZlrKXFYB3034EF5BA5fGY72uYiel2MF/07e7aGMODmlBmM+vvUqHtT/cSuB7CR/CfjSwPHbwEvsDpdjO/+SoP5wR5nKpV6mU/LvtbxKLeHtKLIonMN7iScU1ffr0VeB7yhOtPIRl06ZNe8BMSMXV3Nz8GdKdMDKQysDhwLdDCLd0d3ffVKlUzuju7v5AT0/PHlkMuLOzs9TT0/OqSqUyq6enZ0GlUvljY2PjXSGEHwFHA7tYVu6s1+sTm5ubzzUVW6fBFEiSJA27FcA7kog0MAHI/RiO0MVjsYOfAB9MMXwiZ8Z27g/z6SnKRRQ7OBjoAl5jS1FGfQ04FnhBovHvQ5mr4hyOKuqCkHgsO7CKMwkckZNDupsyn/HSzIASX6HGRyDZxQ77AitiO+8K8/ml/SEX7qHGv3lxSnl4ueVyYnJRv5Jefh47mBS6uNciSsUUY1wUQjjMTADg+F+p6I90IcSVK1cee++99+4ATDUjT+Rlb2DvEMIxMUYqlco9wG+B62KMvy2VSn+JMd7S0tJy/2DHsmzZsvG9vb27hRD2CSG8PMa4H/By4GUxxm37720W7Z9dG0J4R1tb2+2mAlauXNm4Zs2aMY2NjWNLpdLYer0+NsY4Dri1tbX1eX/c5QJASZKk4Vbn6mT2ZY5MKExdIj8kJLkAEGAkgQvjbN4d5pHrESHxGLanzJeBE8jeDueXESkTeKONTqGLh2IHXwBOSfgwxlOnJ7bz0TCf+UWqX5zNZCJnAbvl56TkhHA67iKRhVKczgOxgy8B30q6PwSWxtkcH+ZxRqH6QwdTgLMgR6OQIx8NZ3C/V6eUA/O4gQ7uBHZOLPL9gV/EOUwKc7nbQkrFU61Wz29sbPwWTrPb2NTU5PhfSRx44IG9y5cvP2rDhg0/AyabkWf0gv7cTA4hPLHgrlKpPATcDNwO3BdjvC+EcG+M8V7gYYBSqbQ+xrju8X9QqVQq1Wq1MQChz9gY47gY49j+vx4L7BRC2C2EsGe1Wh0VQuh7pXah36Y6tV6vf6KtrW1DXg5o4cKFTWPGjBkbQhhTq9WeWMRXKpXG9Z8zYx4/f0IIY+v1+pgQwhPn1L333rttY2PfUIl6vU7/+QfwX4ALACVJkjKvzm8oUSeND7ReF2dQDouo5b4uD7KMcawm3S9zRxA5L7ZzdJjPD/NWnthBI5F2Ap8DXpjBEO9mI0fQxAfABYDqtytzWc0s+r7QTFUTga7YwVvZyHHhbB7Mc8niSYziUf6LyEeBkJsDC5wd5nGeF2WmnErfLqGvSro/RBbEdt5G4LjQxUO57w9r+Tp9P0LIT3+I/CDMd5cZKT+3fGKMLCfw3gTDfzV1Lo+zmBEW8HurKRXL9OnTV1UqlV8DRd8F8JKJEyc+6BkhCWDixInrFy9e/I7GxsaLgIlmZJONAQ7o//P4gqon/j/886K9er3+jH9/U/67el73hxBmNzc3Z+6zySVLloxoamoa29vbO7ZUKo0NIYyp1+tjn7YAdAww9ml/Hv/3tokxEmPk8UWoT16M+uTz5fG/N5DnkAsAJUmShlk4k0diB38ijS98t2Mc+wF/yH1dFlGL7cwj8PmED6OBwDmxgwPYlc+ETqqp1yVCoIOjgC8T2CfDgf57OJsHY4c9Tk/qK51U4yzmUOJXpL+LwXto4g1xNh8M87gsj/WKszmctcwl8IqcHdotNPExr8iM9YcueuMc5lDnsuT7Q98ikzfEWXwwLODyXPaHdt7MWubSN84nT25lJCd6RUo5U+ISYpILAAH2pcRVsYN/CV0ssJhSsTgGGIBzPRMkPdn06dMfW7x48bTGxsaLgbeYESWmu7e3t3369OmrBut/YOHChaPGjh07rl6vj4sxjuvffW8c8Iz/OoQwDhgHjATGVavVJxbtPXmxHjx14WcWuQBQkiQpG64mlR1fAhMowAJAABrposr/A5oSPooAfILVHByP4d3hTFaneBCxkwbW8C7gU0Ren/FwV7AbZ9vW9IwX5AKuih3MA47LweHsSeTS2M45lPlsmMuqPNQotrMvJb5G5MgcnoI14EPhlL7xJspYf5jLr2IHC4A8LB9/ESUujR2cQ5XPpvr88Yz9Ab5O4Ihc9oe6/UHKpY1cRCM1oJzoEYwC5scOJlLn42EBd1lUqRjK5fJ59Xq9yGOAN4wYMWKxZ4Kkp5s+ffpjF1544dtHjhy5OMb4ZjOiFIQQrpoyZcrUEMKzbne3ePHibUaMGDE2hDCmWq0+MUI3hPDE6Nz+RXtjn2U3vhHw1PG5T95d75n+dZ64AFCSJCkTT76sIHJMErFGDgLOKERZTuPO2MF5wPtycDiH0cD1sYP/4AHmpjLGOR7PdlQ5htX8K/DiBEKuE/ho6KRuY9Oz2shnaeIdwC65uIMFPkSdd8UO/osGvhVO49EUDySewHh6+RxwHJHGXJ57ka+G+VzhRZhhZT5DjSPI5nj7zVUCPkwD74odfI0GvpNsf+hgRyKfIzAHctof4L/yumOjVPiPG87intjO5YTkd4h5HyWmx3a+Si/fCmezPunHspMYFb7FOs9Q6dlNmTJldaVS+RXwpiIef4xxqeN/JT2bI4444pGFCxe2jhkz5rwYY5sZUQL3tUN6enp+0t3dfVf/Lnxjeer43LFA09MX7z19TO4zjWFWn5IpkCRJyoQVCcU6oWC1+RoQc3IsY4HvMY6rYztvyPTLYDsHxQ6+R5W/A98hjcV/APPCPFba0vRcwtk8SMjFDoBPti3wBar8PbbztTiH3VIJPB7PHrGDr9PLTcC/kN/FPUt5kE6vwIz3h9N5gJi7/rAd8CWq/D128NV4DLsm1R9m8w3gJgIn5rg/LOMBPucVKOX5BsNPcnIk2xP4Ck3cGDuYFTvYJqXg49GMjO0cGTtYyFpu9MSUNqF9hbCowIe/0DNA0nOZOXPmuoceeujIgvdKpeWIEEJHjHEGMBk4CNgX2Im0J3FlggsAJUmSsmAXrgfWJhLtq+JJjCpKaUIXfwAuzNlhvY7Ar2IHv4izaYl9Y4KHXZzF7rGDT8UOridwNXACMC6hvP4J+KQNTZvUW+ZxIbAgh4c2jsC/Uefm2MEP42zaYkf2FszEGZRjO62xg4VUuQn4FH2/Ns2rW2jkfans/lr4/jCfnwBn5rI/wGdo4JY4m//tvwaz2R9m0xbbWUSVm4h8Ehid41PuVuC99gcp5+qcC1RzdEQvAuYDd8QOvhlns09WA42dNMTZtMQOzqaJOwlcAMyA4nyuIm3Vs3EI50MhpyxsaGhocPyvpOc1c+bMjQ899NB7c/o5gqTN4AhgSZKkDAidVGMH1wCHJxBuI49yAPDrwhSozpcocQQZWSg3gCYSmUgHv4/wA2BR6OLvQ/U/HiEwm9cTmQZMBw5IOMfrgPeELh6zo2kz3shPospbgJfm8OiagPcReR9wX+zgPCI/YT1XhHOGZ8F77KCRwFuIHAEcCensQraVHiPyznAq93nRJaTKv9LAW4C9c9kfIu8n8H7g3tjOecBPh7U/zKCJHXjzE/0hsivFmCSzjhLvDHO514tOyvlnDgu4K86m0v/ulSfjgJOI/Gvs4CrgYkosYS6/DcO4k388lhdRYgqBZlbzNvp245e0BQo8BrgyefLkhzwDJG2KmTNn1oBjK5XK74Fv4kZgUiG5AFCSJCk7VpDGAkAITKBACwDDAq6JHZwLvCenh/ga4L+Bb8QOriRyESV+xTb8JnyLdQP1PxKPYXvKvA44iMCBwOFEdslJDj/Rv1uktOm95TQejbP5EJHLcv5+Ph6YTWA2o+iNHfwGuJTIlZT5I3O5bTC+oI0nMpoNvIbAG4m8GTiMyPaFO9EiHWE+v/WKS6w/nMkjsZ0PErgMKOf4UHckMAeY85T+AL+mxPWD2h/WsT8l3tj//F3U/jA7zOU6rzipML4PuVsA+I9PKeBQ4FDqfIkOVkVYBlxLneuo89twJo8MWjudxe4EXkuJSUSagZd7ukkDeIGHsCjG+KaiHbOVl7S5WlpavtPT07MK+EGM0d2GpYJxAaAkSVJWBK4evt+nb6bIhMLVp85nKXEkMCLXZyG8gcAbiMBaemMH1wI3ArcQuIUat1BiLWUeZAPrGcE6NhJoYiw1mqizLWW2JbI7sCeBPYA9ibwU2Jd8/vrwgtDF6TYxbdFFN48rYzv/TuAbBTnkRuAN/b2mb5BTB4/EyA0EbgBWAXcBa/r/PEaZBwHYyIM09d8pa4ykzCjqbE+N8QR2JLAbsBeBvYnsxwZeDIRk7q2D44thPj/0Sku0P8zn17GDzwL/Vbj+wDP2hzuAu7e4P0ReTIkXP9EfSgXZ4+/ZfTnM5xyvNKlAIhf299LdC3C0uwEfBj5MCSgRYwd/A/5CYDWRVQTuANZQ4y5KRMo8SC+Rxv57y+NqlAmMIzCOGuMI7AzsRd8Y4r3p+0HduP4cSxoE1Wp1Ublc/hb5/mHMk20olUoXWXlJW6K5ufm8JUuW3FEqlS4EdjIjUnG4AFCSJCkryqygmkisgYOKVp6wgFvibE4h8skCHXYjcHD/n74vMx5fvlfrf5uo0ffxa63/3y/x1C898v8FyPVs5FgbmLbKfP6HDg4E3l3QDGzfv7PsMy8urz1xn/zHX/O0vkOh+s6mWkAXJ5uGxHXxjf7+MMP+sJX9IdgfnuRMuvhP0yAV7J22i944m+8R+VoRDx/YB9jniXtBfNq9otb/17Vn+G/H/j/B80gaDlOnTr2zfwzw4QU5ZMf/StoqbW1tV/X09BwSYzwfOMCMSMXg7G9JkqSMCKdxO327maTgJfEExheuSGU+D9zu2ap+d9BAazj7aTtESJvb/yGyjmOB35sNDZDF7MpxweVO+egPDRwD/NFsaIBczK7Mtj9IBVVlPrDWREhKUJFG4i603JK2VnNz8y0jRox4AzDfbEjF4AJASZKkbFmRSJyBagF3ATyNRwmc6Gkq4AEiLf0Ld6Wt7y/nsBZ4J3Cf2dBWuhJ4T+hMZl9hbcrzR40jgfvNhrbyCf4qYKb9QSpwGziD+4l8z0xISk2tVjuPZ96jM2/W1+t1x/9KGhATJ05c39LS0gF8OISwzoxI+eYCQEmSpGxZkUyksXgLAAHCPC4ELvBULbT11DkizOd6U6EB7S9d3ESdabgri7bctdSYFrp4zFTkrD+cwd8ITANrqy12HQ32B0lAna8DjpaUlJSpU6feCfyqAIdaaWtre9iKSxpILS0tPwghHA781WxI+eUCQEmSpCypc3UysQYmFLhSs4E7PWELaSPw3rCAy02FBqW1LuAqIjOAXrOhzbSSMpPCGe4Sl9v+MI8rgZn2B23Bc/s11JgUTnWXWUn9uwAG/ttMSEpQ7scAxxgd/ytpUEyZMmXlww8/vH8I4btmQ8onFwBKkiRlSZ3fkMo4i8jBRS1T6OJe4MNA9KQtlLUEjghd/NRUaFB7zHy6gaOButnQpp00XEON5nA6D5iM3D+DXEzkI/YHbYZrqTLFxcGSnmIb/ge42URISkkBxgCvjzFebKUlDZaZM2eua25u/liM8Z3AvWZEypcSJb+0lKQMdmd7s1RQ4UweAW5MJNwXxGN5UWFr1cVS4DuetYVxH/C2MI+KqdAQ9Zj/I3ACLvLR854sXEXkbS7uKVDJ5/NDIifiDxH0/Faw0f4g6RnuJd9iHfAvZkJSSqZOnXpnCOGK3PbmELod/ytpKLS2tv6kVCrtD1xkNqT8KAHrTYMkZUyddSZBKrQVyURaLvQYYIBPA1d4yubeHQQOD10JXZvKhTCPuUSOJd87HGjrVOhlSujiIVNRsP4wn9OIzLI/6NlPEnqoMjmczYMmQ9Iztom+XWXPMxOSUhJjzO0Y4Hq97vhfSUNmypQpq1taWqaHEN4eQlhlRqT0lQh+SCxJGezOD5oEqcBCQouMQrEXAIYueoGZwBpP3Nz6HfDGMI8/mQoNS5+Zz9kE3g/0mg09zQJ2ZXr/7sEqZn84k8AHgarZ0FNEzmAXptkfJD2vJuYAq02EpFTUarXzyeePYNZv3LjR8b+Shlxzc/PipqamV8UYu3DSgJS0EnVuNg2SlCkbeAB/aSEVWzoLACMHFb1YoYs1BN4OrPXUzZ1zgDeELv5uKjSsfWYe5xI5yj6jJ+6+8B+hi/bQ6cIv+wM/InAU8JjZEBAJ/GeYzyz7g6RNuo+cyn3AR/DLXkmJyPEY4CVHHHGEP96QNCwmTpz4YGtr62zgbSGEP5gRKU0lduUOcBdAScqQG8IixzhJhbYL15POIo/XxxmUi16yMI+VBN6LY/jyYiPw0dDFh0KXCyqUkT4zn58Bh4M/FCm49UQ+GLr4sqnQk55DLqTO4biDU9FtIPLhMI8vmQpJm3Uf6WIp8HkzISkVeRwDHEJw/K+kYdfS0rL8yiuvfC3wYeBuMyKlpRQ6qQOXmQpJyoxLTYFUbP27dVyTSLjbMY79rBqEeSwGTsCdE1K3isBbQhenmgplrs90cS1VJgArzUYh3QK8Mcznh6ZC/9QfFnANJSYA15qNQrqVwGFhPueYCklbpIsvEPiJiZCUgryNAQ4hrGtqanL8r6RM6OzsrLe0tPygWq2+PITwXaDXrEhpKPU9WXCRqZCkrLzt2ZMlAYGrk4nVMcD/KFsX84ATcRFgqtfdT+jlgDCPK02GMnuanslq4M3Aj81GoVxMjQNDl4u79Bz9YS6rWMfhBNw9pFi6qfH6MM/F4ZK25lWISJkPERP6LEJSYU2dOvVO4PK8HE+9Xr944sSJj1pZSVkybdq0B5qbmz9Wq9X2iTF24fQjKfNK/f93EbDedEjSsLuDXVhuGiQBK5KJNDDBcj0pHV2cSuBjuAgwJQ8S+HCYxzvDWdxjOpRAn3ksdPFeArOBdWYk12rA5+hiejiD+02Hnrc/nMPaMI93EzjO/pB7dSInsyvT7A+SBuQechqP0kQbcL3ZkJR1eRoDHEJYZEUlZdXUqVNva21tnV0ul18NnAPUzYqUTSWAcDoPAGeZDkka7rdWvtM/ml1S0ZUTWgCICwCfLszjFCIfxu3xU7CMBl4T5vEDU6EEe01X/8jPP5mNXLqFyNtCF18MLirX5veHucDBwA1mI5dupcTbwny+4GcIkgb0/nEq91FlCnCj2ZCUZfV6/QLysRvVYyEEx/9KyrzJkyff0NLS8qF6vX4gcC7uCChlTumJv6rxX/jLYEkaTmtoZK5pkAQQTuN2YE0i4b4qnsQoq/a0Gs7nHAJvBxzhkU0PAMfTxZT+601Ks9fM5Y/AQQROw0VieRGBLqrsH+bzS9OhLe4PXfyBdRxEZK79IVf9YQFVXhPmcqnpkDQo948zWU0vhxO4xmxIyqq8jAEOIVzc3Ny81opKSkVbW9t1LS0t74kxvjSE8F3gMbMiZcMTCwDDGdxG4CumRJKG602PT4TTXCQi6SlS2QWwkUc5wHI9Q2ufR4XAYcAtZiMz6kTOoJeXhS5Od1ct5aLXdPFYmMcJ1Hkz8BczkrRVBNpCF7PDmTxiOrTV/eEc1ob5HEfgLcBfzUjSVhOZGrpotz9IGvT7x1ncQxNvJXKJ2ZCUVXkYAxxjPM9KSkpRa2vrrc3NzR+r1+t7AScDd5gVaXiVnvqUwX8BvzYtkjTkfhzm8SPTIOlp0hkDHBwD/KypmcfvaOQgYJnZGHa/ocShYT6zwlncYzqUu36zgMvZyP7A14CqGUlKDTidMq8O86iYDg3C88hlbMv+/Z/92R/SUgfmUeZVYT7dpkPSkN07TuFhdqONwHfMhqQsamxsPJ+0R1A6/ldS8tra2u5paWn5wlVXXfUiYHIIYRGOB5aGxVMWAIYueqnzblydK0lD6XdU6TANkv5JnauTiTW6APC5hFO5jwdoIXIyfuk+HP5O5Fh25ZAwN6HrStqSfnM260MX/06JA9yxJRlXAhNCF8eH03nAdGjQ+sO3WBfm8xngdfjDhESKxlXUmRC6mGN/kDQsbaiTapjHvxL5COCISkmZMmnSpLuAy5LtsY7/lZQjnZ2d9ZaWlmXNzc0zGxoa9gW+DNxqZqShU/qnh40F3EGkBbjL9EjSoPsL0Or4HknPqM5v6NvxI/sCB1mw50nRImphPl+gzpuAm83IkFgFfJQR7Bvmc2boTOR6kgai58zlj2E+U4BpwI1mJJPuJnAMXbwxdHGt6dCQ9Ycu/hC6mExkuv0hs+4hciy78MawgGtMh6Rhv3fM52zKvB58ZpGUsf7Ut9NUqhZaQUl5NGnSpJtbWlr+o6Wl5cUhhANDCN8F7jYz0uAqPcvL3PXUOAz4qymSpEGzgl4OC12sMRWSnvGZrG9x8A2JhPuSeALjrdom1HUBV9HA/sC3cCv8wXInkX9lIy8NXZwaTmGDKVFhe04XFwOvAT4KPndmxEPA54F9wzzOChBNiYalP8znov7+cKL9ITMeJvAFYB9/vCApc/eN0/kzD3Bo/3OM71iSMqFcLl9Amp+vrd24ceMSKygp75qbm69pbm7+2MMPP7wHMC3G2BVCWGVmpIFXetaXuTP4GyM4EPixaZKkAVUn8B0e4PBwFveYDknPY0UicQaq7gK4yck6jUdDFx8HJgArzciAuR6YA7wkzOc74WzWmxIJQhe9oYtT2cjeBP4FuMOsDItHga9QY+/QRWfo4iFTooz0h++xLS8BPkbf7rkavv7w4jCPk+0PkjJ731jExtBFJ2X2J/ALMyJpuCU8Bvji6dOnP2YFJRXFzJkzN7a0tFzc2to6e8qUKXsArwc+B1yNGyVIA6LhOV/mTuFh4L1xNucQ+W/gFaZMkrZC4CpqnBQWcJXJkLSJfWMFkWOSiDVyEFCxaJtR3i6ujZ0czBreR+TLwJ5mZbPVgYsIfJd5/MKdtKTn6Dl9i2JPiSfSxQaOAT4N7GVmBt3DwDzg66GLe02HMtkfvsU64LvxROaxnmMJfMr+MIT9oZdv+ANBSUndN07nz8DbYjvTCHwNeKVZkTRsPSmERTHGiYmF7fhfSUXu2xG4tv/PF5cvX77dhg0bDokxHhZCeCPwJmCEmZI2T8MmXYDzWBI7qbCKIwnMAiYDZdMnSZtkA30LE+aFeVxiOiRtphXJRBqYYLm2IG19o93+Nx7NeYzgeCKfBHYxM89rDYEfUuL0cDo3mw5pM/pO31js02Mn81jDVCLHAc08x5QAbZE/EjiVMv8bTuNR06GE+sNpcQbz2IE2IscDU+wP9gdJesb7xnwuijPoZgfeT+TTuBBQ0jAol8sXVKvVU0jnu+tHe3t7u62cJPWZOHHio8Cy/j/09PRsG2OcEEJ4fYzxAOAAYF9coyQ9p4ZN/Q/2fzF5PnB+PIHxbOQtBCYQeRmwC4HtgJGmVFLBPUbgUSKrgD8Dv6bKZeFMHjE1krbILlzPatYC22Y+1ugI4K3RvzPXN+PRnEYTHwE+CextZp5iHfATIv/LgywNixwNIG1V3+l7z18MLI7HsTc15gAfAl5odrZYL/BTIqeG+fzSdCjZ/tB3j+3rDx28hMAcIh8CdjI79gdJeoZ7xg8inMNsplHn4wTeDASzI2koTJo06a7u7u5fhhDemkjIjv+VpOfQ3Ny8Flje/wfoWxRYr9dfUyqVXl2v1/cJIewD7AO8BHcLlIDNWAD4lBe6U7mP/sWAplCSlBlreYQGDkwi1jLrLJg26bmrk2ps52BiGj+0iJ2U+heUaEtr3rcQsG9nrtW0AscBrRR3552NwKUEfkwT54dTeDip6EsspMqVmYrpIXca0jP0nr6dND8dZ/Dv7MBbgHcTeScw3uw8r1p/n1pI5ALH/Cp3/aGLm4BPxRl8hrFMJPBu4Ej7g/1Bg3HBcTw1RmcqpiZWWRht2ulLZN4TPy55GTXa6ftxyQvMjqRB70EhLAJSWQC4yIpJ0ubpXxR4Zf+fJ3R2dpYOOuigPUIIe5XL5d3r9foLgd1DCC8Edqfvh85jQghjYoyjzKRy/k4mSZIkKctiB3sS+FD/zjv7FOCQ7weWAD9jBD3JLfqT8tN7Ggm8jciR9I0A3cusPKEGXEZgIYELwlzuNiUqXH+ITKLEkUQm2x+e1h8CvwQWsZHzw1ncY0okFfZ+0UkDa5gIzOh/ptzRrDzhntBVvJ11Ozs7S4cddlgmnxvK5fLqiRMnrvfUTNOSJUtGNDU17ZZCrGPHjr39wAMP7LVqabrooovGNTY2ZnJqy0MPPfTbmTNnOjFFehYrV65sXLNmzZhRo0aNrtVq4wBijOOeeHaNcRvcTVAZVK/Xb5w6deofnu8/5wJASZIkKSFxNocSeRfwDvq2t8+DDQSups4vgWU8yBWO95Uy2X/2ITKFyGQCbwW2L1gKrgd+TuTnBH4ZunjIs0Lq7w/t7EtgMn2LhSfaH+wPkvRP94oZlBnDQZRoAVqA17OFU6pyopALACVJkiQNDhcASpIkSYmKc3gVkalE3gIcBmyXSOgPA9cAlwG/ZFuuCt9yNLqUVP/p+wL3lZSYABzc/2c/oJyTQ3yMwO+JXAdcQQO/CKdxp5WXNqM/hP7eEJhgf5Ak/dP9ooNtgNcRmEB84plyr5wf9h3AX/v//D50capngiRJkqSB4AJASZIkKQdiJw2sYkL/l+yv7//zMqA0zKGtBn5P4Doi11HjOs7gpgDRqkk560PHsx29vIbAfgReRuQVwMvp+yI3qwt/avR9Efs3Ir+jxHXUuY4HudGdSKUB7g919qfOK+wPkqRnvV/MYSciBxN5JZGXEngpfTvf757IITwG3AasInAHsX+xX+SvrOev4RzWWmVJkiRJg8EFgJIkSVJOxQ62IbIvgX2AfQm8lMiuwG79f8Zu5f/EOuAe4C4i9xC4HbiJyN+I3MQGbvILDknxREawjr0ps3t/D9qTyK6U2B3Yhcg4YBwwhoFdtLwWuA+4F7iXyH0E7iBwM5GbqXEzD/P3sIiNVkmyP/xTfyhzW+ii1ypJUgbuFycxirX9iwEDe/ffI8YDOwLj+/88/tcDbX3//eI+wpPuHXAvde6gxCoCfyewKpzOA1ZLkiRJ0nBwAaAkSZJUUPFERtDLGCJjqDOWvi/XITAC2Kb/r9dTZx3QS+RRAjXqPMBG7nVxn6RB6Euj2cDY/p7USAMjqTGq/2+XCYz+x3+4/wvWEhup9fejRh4l8ijruS+czXozKhW0PwQepE60P0hSwe4VnZS4kx0JbEeN0H/P6LsLBLbr/+tt+t95AR4jsqH/3vEIdar9z5kPUWYjcG/o4jEzK0mSJEmSJEmSJEmSJEmSJEmSJEmSJEmSJEmSJEmSJEmSJEmSJEmSJEmSJEmSJEmSJEmSJEmSJEmSJEmSJEmSJEmSJEmSJEmSJEmSJEmSJEmSJEmSJEmSJEmSJEmSJEmSJEmSJEmSJEmSJEmSJEmSJEmSJEmSJEmSJEmSJEmSJEmSJEmSJEmSJEmSJEmSJEmSJEmSJEmSJEmSlDX/H5hKUZs3lnMrAAAAJXRFWHRkYXRlOmNyZWF0ZQAyMDI0LTA3LTEzVDA4OjQ2OjIzKzAwOjAwIGTMQAAAACV0RVh0ZGF0ZTptb2RpZnkAMjAyNC0wNy0xM1QwODo0NjoyMyswMDowMFE5dPwAAAAASUVORK5CYII=;" vertex="1" parent="1">
          <mxGeometry x="496.93000000000006" y="310" width="160" height="25.13" as="geometry" />
        </mxCell>
        <mxCell id="3ItWE5Dm4-1pLOyVrMed-3" value="Chat sender" style="rounded=0;whiteSpace=wrap;html=1;" vertex="1" parent="1">
          <mxGeometry x="260" y="230" width="120" height="60" as="geometry" />
        </mxCell>
        <mxCell id="3ItWE5Dm4-1pLOyVrMed-4" value="Chat receiver" style="rounded=0;whiteSpace=wrap;html=1;" vertex="1" parent="1">
          <mxGeometry x="520" y="50" width="120" height="60" as="geometry" />
        </mxCell>
        <mxCell id="3ItWE5Dm4-1pLOyVrMed-5" value="Chat frontend" style="rounded=0;whiteSpace=wrap;html=1;" vertex="1" parent="1">
          <mxGeometry x="264" y="50" width="120" height="60" as="geometry" />
        </mxCell>
        <mxCell id="3ItWE5Dm4-1pLOyVrMed-6" value="Instagram backend" style="rounded=0;whiteSpace=wrap;html=1;" vertex="1" parent="1">
          <mxGeometry x="30" y="45" width="130" height="70" as="geometry" />
        </mxCell>
        <mxCell id="3ItWE5Dm4-1pLOyVrMed-8" value="" style="endArrow=classic;html=1;rounded=0;exitX=0;exitY=0.5;exitDx=0;exitDy=0;" edge="1" parent="1" source="3ItWE5Dm4-1pLOyVrMed-5" target="3ItWE5Dm4-1pLOyVrMed-6">
          <mxGeometry width="50" height="50" relative="1" as="geometry">
            <mxPoint x="310" y="130" as="sourcePoint" />
            <mxPoint x="360" y="80" as="targetPoint" />
          </mxGeometry>
        </mxCell>
        <mxCell id="3ItWE5Dm4-1pLOyVrMed-14" value="REST" style="edgeLabel;html=1;align=center;verticalAlign=middle;resizable=0;points=[];" vertex="1" connectable="0" parent="3ItWE5Dm4-1pLOyVrMed-8">
          <mxGeometry x="0.3077" y="-1" relative="1" as="geometry">
            <mxPoint x="14" y="-19" as="offset" />
          </mxGeometry>
        </mxCell>
        <mxCell id="3ItWE5Dm4-1pLOyVrMed-9" value="" style="endArrow=classic;html=1;rounded=0;entryX=0.5;entryY=0;entryDx=0;entryDy=0;" edge="1" parent="1" target="3ItWE5Dm4-1pLOyVrMed-3">
          <mxGeometry width="50" height="50" relative="1" as="geometry">
            <mxPoint x="320" y="110" as="sourcePoint" />
            <mxPoint x="360" y="80" as="targetPoint" />
          </mxGeometry>
        </mxCell>
        <mxCell id="3ItWE5Dm4-1pLOyVrMed-10" value="" style="endArrow=classic;html=1;rounded=0;exitX=1;exitY=0.25;exitDx=0;exitDy=0;entryX=0;entryY=0.25;entryDx=0;entryDy=0;" edge="1" parent="1" source="3ItWE5Dm4-1pLOyVrMed-5" target="3ItWE5Dm4-1pLOyVrMed-4">
          <mxGeometry width="50" height="50" relative="1" as="geometry">
            <mxPoint x="310" y="130" as="sourcePoint" />
            <mxPoint x="360" y="80" as="targetPoint" />
          </mxGeometry>
        </mxCell>
        <mxCell id="3ItWE5Dm4-1pLOyVrMed-12" value="Stomp, Websocket" style="text;html=1;align=center;verticalAlign=middle;whiteSpace=wrap;rounded=0;" vertex="1" parent="1">
          <mxGeometry x="410" y="110" width="83.46" height="30" as="geometry" />
        </mxCell>
        <mxCell id="3ItWE5Dm4-1pLOyVrMed-13" value="REST" style="text;html=1;align=center;verticalAlign=middle;resizable=0;points=[];autosize=1;strokeColor=none;fillColor=none;" vertex="1" parent="1">
          <mxGeometry x="260" y="150" width="60" height="30" as="geometry" />
        </mxCell>
        <mxCell id="3ItWE5Dm4-1pLOyVrMed-15" value="" style="endArrow=classic;html=1;rounded=0;exitX=0;exitY=0.75;exitDx=0;exitDy=0;entryX=1;entryY=0.75;entryDx=0;entryDy=0;" edge="1" parent="1" source="3ItWE5Dm4-1pLOyVrMed-4" target="3ItWE5Dm4-1pLOyVrMed-5">
          <mxGeometry width="50" height="50" relative="1" as="geometry">
            <mxPoint x="310" y="130" as="sourcePoint" />
            <mxPoint x="360" y="80" as="targetPoint" />
          </mxGeometry>
        </mxCell>
        <mxCell id="3ItWE5Dm4-1pLOyVrMed-16" value="REST" style="text;html=1;align=center;verticalAlign=middle;resizable=0;points=[];autosize=1;strokeColor=none;fillColor=none;" vertex="1" parent="1">
          <mxGeometry x="430" y="30" width="60" height="30" as="geometry" />
        </mxCell>
        <mxCell id="3ItWE5Dm4-1pLOyVrMed-17" value="" style="endArrow=classic;html=1;rounded=0;exitX=1;exitY=0.5;exitDx=0;exitDy=0;" edge="1" parent="1" source="3ItWE5Dm4-1pLOyVrMed-3" target="3ItWE5Dm4-1pLOyVrMed-1">
          <mxGeometry width="50" height="50" relative="1" as="geometry">
            <mxPoint x="310" y="130" as="sourcePoint" />
            <mxPoint x="360" y="80" as="targetPoint" />
          </mxGeometry>
        </mxCell>
        <mxCell id="3ItWE5Dm4-1pLOyVrMed-18" value="" style="endArrow=classic;html=1;rounded=0;entryX=0.317;entryY=0.983;entryDx=0;entryDy=0;entryPerimeter=0;" edge="1" parent="1" target="3ItWE5Dm4-1pLOyVrMed-4">
          <mxGeometry width="50" height="50" relative="1" as="geometry">
            <mxPoint x="558" y="228" as="sourcePoint" />
            <mxPoint x="360" y="80" as="targetPoint" />
          </mxGeometry>
        </mxCell>
        <mxCell id="3ItWE5Dm4-1pLOyVrMed-19" value="AMQP" style="text;html=1;align=center;verticalAlign=middle;resizable=0;points=[];autosize=1;strokeColor=none;fillColor=none;" vertex="1" parent="1">
          <mxGeometry x="421.73" y="220" width="60" height="30" as="geometry" />
        </mxCell>
        <mxCell id="3ItWE5Dm4-1pLOyVrMed-21" value="AMQP" style="text;html=1;align=center;verticalAlign=middle;resizable=0;points=[];autosize=1;strokeColor=none;fillColor=none;" vertex="1" parent="1">
          <mxGeometry x="493.46000000000004" y="160" width="60" height="30" as="geometry" />
        </mxCell>
        <mxCell id="3ItWE5Dm4-1pLOyVrMed-23" value="" style="endArrow=classic;html=1;rounded=0;exitX=0.75;exitY=0;exitDx=0;exitDy=0;" edge="1" parent="1" source="3ItWE5Dm4-1pLOyVrMed-1">
          <mxGeometry width="50" height="50" relative="1" as="geometry">
            <mxPoint x="310" y="130" as="sourcePoint" />
            <mxPoint x="600" y="110" as="targetPoint" />
          </mxGeometry>
        </mxCell>
        <mxCell id="3ItWE5Dm4-1pLOyVrMed-24" value="Stomp, Websocket" style="text;html=1;align=center;verticalAlign=middle;whiteSpace=wrap;rounded=0;" vertex="1" parent="1">
          <mxGeometry x="610" y="160" width="83.46" height="30" as="geometry" />
        </mxCell>
      </root>
    </mxGraphModel>
  </diagram>
</mxfile>
